<?xml version="1.0" standalone="no"?>
<!DOCTYPE svg PUBLIC "-//W3C//DTD SVG 1.1//EN" "http://www.w3.org/Graphics/SVG/1.1/DTD/svg11.dtd" >
<!--
2013-9-30: Created.
-->
<svg>
<metadata>
Created by iconfont
</metadata>
<defs>

<font id="iconfont" horiz-adv-x="1024" >
  <font-face
    font-family="iconfont"
    font-weight="500"
    font-stretch="normal"
    units-per-em="1024"
    ascent="896"
    descent="-128"
  />
    <missing-glyph />
    
    <glyph glyph-name="x" unicode="x" horiz-adv-x="1001"
d="M281 543q-27 -1 -53 -1h-83q-18 0 -36.5 -6t-32.5 -18.5t-23 -32t-9 -45.5v-76h912v41q0 16 -0.5 30t-0.5 18q0 13 -5 29t-17 29.5t-31.5 22.5t-49.5 9h-133v-97h-438v97zM955 310v-52q0 -23 0.5 -52t0.5 -58t-10.5 -47.5t-26 -30t-33 -16t-31.5 -4.5q-14 -1 -29.5 -0.5
t-29.5 0.5h-32l-45 128h-439l-44 -128h-29h-34q-20 0 -45 1q-25 0 -41 9.5t-25.5 23t-13.5 29.5t-4 30v167h911zM163 247q-12 0 -21 -8.5t-9 -21.5t9 -21.5t21 -8.5q13 0 22 8.5t9 21.5t-9 21.5t-22 8.5zM316 123q-8 -26 -14 -48q-5 -19 -10.5 -37t-7.5 -25t-3 -15t1 -14.5
t9.5 -10.5t21.5 -4h37h67h81h80h64h36q23 0 34 12t2 38q-5 13 -9.5 30.5t-9.5 34.5q-5 19 -11 39h-368zM336 498v228q0 11 2.5 23t10 21.5t20.5 15.5t34 6h188q31 0 51.5 -14.5t20.5 -52.5v-227h-327z" />
    

    
    <glyph glyph-name="bofang" unicode="&#58880;" d="M512 812C229.248 812 0 582.752 0 300s229.248-512 512-512 512 229.248 512 512S794.752 812 512 812zM512-148c-247.424 0-448 200.576-448 448s200.576 448 448 448 448-200.576 448-448S759.424-148 512-148zM384 556 768 300 384 44Z"  horiz-adv-x="1024" />

    
    <glyph glyph-name="liebiao1" unicode="&#58914;" d="M824.221 189.711h-418.244c-15.835 0-28.676-12.841-28.676-28.709 0-15.836 12.841-28.677 28.676-28.677h418.244c15.871 0 28.71 12.841 28.71 28.677 0 15.869-12.838 28.709-28.71 28.709zM824.221 412.406h-418.244c-15.835 0-28.676-12.842-28.676-28.709s12.841-28.678 28.676-28.678h418.244c15.871 0 28.71 12.808 28.71 28.678 0 15.868-12.838 28.709-28.71 28.709zM405.976 577.683h418.244c15.871 0 28.71 12.84 28.71 28.709 0 15.868-12.839 28.71-28.71 28.71h-418.244c-15.835 0-28.676-12.842-28.676-28.71-0.001-15.869 12.84-28.709 28.676-28.709zM271.441 670.667h-71.127c-15.869 0-28.709-12.842-28.709-28.678v-71.159c0-15.836 12.839-28.745 28.709-28.745h71.127c15.87 0 28.71 12.908 28.71 28.745v71.159c0 15.835-12.841 28.678-28.71 28.678zM271.441 448.003h-71.127c-15.869 0-28.709-12.875-28.709-28.743v-71.127c0-15.868 12.839-28.709 28.709-28.709h71.127c15.87 0 28.71 12.842 28.71 28.709v71.127c0 15.868-12.841 28.743-28.71 28.743zM271.441 225.309h-71.127c-15.869 0-28.709-12.842-28.709-28.709v-71.162c0-15.835 12.839-28.676 28.709-28.676h71.127c15.87 0 28.71 12.841 28.71 28.676v71.162c0 15.867-12.841 28.709-28.71 28.709z"  horiz-adv-x="1024" />

    
    <glyph glyph-name="forward2" unicode="&#58915;" d="M259.19315176 71.63302295999995c3.03946012-1.6908255 6.38085338-2.51610938 9.74237548-2.51610937 3.72384188 0 7.42755486 1.02657262 10.68843262 3.07971788L731.8996516 355.95338195l0-271.47813674c0-11.13126786 9.01773599-20.12887496 20.12887497-20.12887499s20.12887496 8.99760713 20.12887497 20.12887499l0 603.86624914c0 11.11113899-9.01773599 20.12887496-20.12887497 20.12887497s-20.12887496-9.01773599-20.12887497-20.12887497l0-271.47813675L279.62395987 700.5999792c-6.21982237 3.90500175-14.04995474 4.12641936-20.43080811 0.5636085-6.40098225-3.542682-10.38649948-10.28585511-10.38649949-17.61276561l0-594.30503354C248.80665227 81.8987492 252.79216951 75.15557607999995 259.19315176 71.63302295999995zM289.06440222 647.13768728l415.62101041-260.74944638L289.06440222 125.61866563000001 289.06440222 647.13768728z"  horiz-adv-x="1024" />

    
    <glyph glyph-name="iconfontcha" unicode="&#58973;" d="M540.98944 300.233472l369.568768 369.568768c7.99744 7.998464 7.99744 20.965376 0 28.962816-7.998464 7.998464-20.9664 7.998464-28.96384 0L512.026624 329.197312 142.488576 698.733312c-7.998464 7.998464-20.965376 7.998464-28.962816 0s-7.998464-20.965376 0-28.962816l369.536-369.536L113.55648-69.272832c-7.998464-7.998464-7.998464-20.9664 0-28.96384 3.99872-3.99872 9.239552-5.997568 14.481408-5.997568s10.482688 1.998848 14.481408 5.997568l369.507328 369.507328 369.539072-369.539072c3.99872-3.99872 9.240576-5.997568 14.482432-5.997568s10.482688 1.998848 14.482432 5.997568c7.99744 7.998464 7.99744 20.9664 0 28.96384L540.98944 300.233472z"  horiz-adv-x="1024" />

    
    <glyph glyph-name="sousuo" unicode="&#58955;" d="M976.948-50.889l-227.415 227.415c28.917 32.756 52.169 69.646 69.237 109.999 21.117 49.925 31.824 102.944 31.824 157.582s-10.707 107.658-31.824 157.582c-20.39 48.209-49.575 91.499-86.746 128.668s-80.461 66.355-128.668 86.746c-49.925 21.117-102.943 31.824-157.582 31.824-54.639 0-107.658-10.707-157.582-31.824-48.208-20.39-91.499-49.576-128.668-86.746-37.17-37.17-66.355-80.459-86.746-128.668-21.117-49.924-31.824-102.943-31.824-157.582s10.707-107.657 31.824-157.582c20.39-48.208 49.576-91.499 86.746-128.668 37.17-37.17 80.461-66.356 128.668-86.747 49.925-21.117 102.944-31.824 157.582-31.824 54.639 0 107.658 10.707 157.583 31.824 40.352 17.068 77.242 40.32 109.998 69.237l227.415-227.415c4.996-4.996 11.542-7.493 18.090-7.493s13.094 2.497 18.090 7.493c9.988 9.992 9.988 26.189-0.002 36.179zM445.774 90.453c-94.464 0-183.275 36.787-250.071 103.584-66.796 66.795-103.583 155.606-103.583 250.071 0 94.464 36.787 183.275 103.583 250.071 66.796 66.796 155.607 103.583 250.071 103.583s183.275-36.787 250.071-103.583c66.796-66.796 103.583-155.607 103.583-250.071 0-92.641-35.4-179.83-99.768-246.163-1.516-0.974-2.953-2.118-4.278-3.444-1.325-1.325-2.469-2.763-3.443-4.277-66.336-64.369-153.525-99.77-246.164-99.77z"  horiz-adv-x="1024" />

    
    <glyph glyph-name="icon" unicode="&#58950;" d="M76.619105 105.27625160000002c-38.6585144 0-73.24393414-32.55271684-73.24393415-71.20866746 0-38.65338808 34.58541974-73.24521542 73.24393415-73.24521541 38.65210555 0 71.20866744 34.59182734 71.20866743 73.24521541C147.82649116 72.72353476 115.27121053 105.27625160000002 76.619105 105.27625160000002L76.619105 105.27625160000002zM76.619105 455.20738618c-38.6585144 0-73.24393414-32.54887178-73.24393415-71.20738618 0-38.65210555 34.58541974-71.20610491 73.24393415-71.20610491 38.65210555 0 71.20866744 32.55271684 71.20866743 71.20610491C147.82649116 422.65979568 115.27121053 455.20738618 76.619105 455.20738618L76.619105 455.20738618zM337.02930576 668.83082725L953.48412878 668.83082725c36.62196645 0 67.14070036 28.48731228 67.14070037 65.10287113 0 36.62196645-30.51873268 67.14070036-67.14070037 67.14070037L337.02930576 801.07439749c-36.61555884 0-67.13301025-30.51873268-67.13301024-67.14070036C269.89629677 697.31813828 300.41374815 668.83082725 337.02930576 668.83082725L337.02930576 668.83082725zM76.619105 807.17891254c-38.6585144 0-73.24393414-34.58541974-73.24393415-73.24393414 0-38.65210555 34.58541974-71.20866744 73.24393415-71.20866746 38.65210555 0 71.20866744 32.55528062 71.20866743 71.20866746C147.82649116 772.59221153 115.27121053 807.17891254 76.619105 807.17891254L76.619105 807.17891254zM953.48412878 451.14198163L337.02930576 451.14198163c-36.61555884 0-67.13301025-30.51873268-67.13301024-67.14070035s30.5174514-67.14198163 67.13301024-67.14198164L953.48412878 316.85929964c36.62196645 0 67.14070036 30.52001519 67.14070037 67.14198164S990.10609523 451.14198163 953.48412878 451.14198163L953.48412878 451.14198163zM953.48412878 101.20700199999999L337.02930576 101.20700199999999c-36.61555884 0-67.13301025-30.5174514-67.13301024-67.13941786 0-36.62068519 30.5174514-67.13941784 67.13301024-67.13941783L953.48412878-33.07183368999995c36.62196645 0 67.14070036 30.51873268 67.14070037 67.13941783C1020.62354664 70.69083311999998 990.10609523 101.20700199999999 953.48412878 101.20700199999999L953.48412878 101.20700199999999zM953.48412878 101.20700199999999"  horiz-adv-x="1024" />

    
    <glyph glyph-name="you" unicode="&#59098;" d="M714.31541819 400.92803489C726.73367897 389.67398456 726.5882799 373.60527529 713.79606569 362.4120901L233.20731718-58.10306648999995C219.42645368-70.16132422999999 218.03000534-91.10806768999998 230.08825842-104.88892968000005 242.14651611-118.66979165999999 263.0932596-120.06624155999998 276.8741216-108.00798848L757.46287314 312.50716818C800.09206355 349.80770898000003 800.65637876 412.17308949 758.84526077 450.06441495L277.30564069 886.45969716C263.73700321 898.75627421 242.76910567 897.72506508 230.47252699 884.1564292 218.17595146 870.58779175 219.20716068 849.6198941600001 232.77579656 837.32331397L714.31541819 400.92803489Z"  horiz-adv-x="1024" />

    
    <glyph glyph-name="suijibofang" unicode="&#59004;" d="M516.58478218 437.10758708l-23.19267391 34.15978885c2.51530609 3.38878664 5.0606507 6.80286802 7.66923405 10.26912165C582.57007352 589.84723282 692.87123659 596.32363232 769.12248706 583.67200481l-59.64564408 59.75868284c-4.12235167 4.12788492-4.12235167 10.82166693 0 14.95192334l14.92425634 14.95113234c4.1207704 4.12946617 10.80111442 4.12946617 14.92425634 0l113.67255895-113.88519771c3.03939412-1.3224723 4.68991619-2.12243783 4.68991618-2.12243783l0-6.90167776c0-0.04031476 0-0.08062875 0-0.12173375l0-36.28538841C668.60746263 587.92873798 572.62504888 512.23714728 516.58478218 437.10758708zM856.653883 254.14553166999997l1e-8-36.05456867c0-0.03715223 0-0.07351424 0-0.11066726l0-6.86215401c0 0-1.64814982-0.79522253-4.68359193-2.10899984L738.46847562 95.86225222999997c-4.11681842-4.10258941-10.78767643-4.10258941-14.90212258-1e-8l-14.90212256 14.85469408c-4.1160274 4.10337965-4.1160274 10.75368593 0 14.85548432l59.55711058 59.37134783c-76.13742148-12.5694175-186.27337429-6.13491248-267.66037174 101.47308572-137.19565338 181.39769612-141.81995932 255.026926-334.51123887 258.16671112l0 43.02818018c0 0 159.73222927 45.50554378 302.13951459-182.86798791C514.48289686 330.50270639999997 599.02548891 153.94274674999997 856.653883 254.14553166999997zM393.79878312 330.73194565999995l25.20523473-37.12487846C291.33443509 142.54640078 166.04893944 178.37726342999997 166.04893944 178.37726342999997l0 43.3088007C293.00471865 223.76423520000003 338.4462342 256.55649475999996 393.79878312 330.73194565999995z"  horiz-adv-x="1024" />

    
    <glyph glyph-name="wo" unicode="&#58895;" d="M685.922 305.38c83.067 58.678 137.317 155.437 137.317 264.871 0 178.992-145.093 324.083-324.077 324.083-178.982 0-324.075-145.093-324.075-324.083 0-113.247 58.101-212.909 146.109-270.853-164.404-71.711-280.308-233.853-284.853-423.588h46.308c4.891 184.177 126.061 339.369 292.782 394.847 38.127-15.765 79.908-24.481 123.73-24.481 47.591 0 92.784 10.259 133.492 28.686 173.585-51.459 301.147-209.979 306.169-399.050h46.314c-4.678 195.21-127.236 361.214-299.215 429.569zM499.163 292.483c-153.41 0-277.778 124.364-277.778 277.77 0 153.417 124.369 277.776 277.778 277.776 153.412 0 277.783-124.359 277.783-277.776 0-153.407-124.371-277.77-277.783-277.77z"  horiz-adv-x="1024" />

    
    <glyph glyph-name="fenxiang" unicode="&#58919;" d="M768 181.846154C697.028923 181.846154 636.061538 139.625846 607.783385 79.131077L317.755077 212.96C340.440615 242.656 354.461538 279.441231 354.461538 319.692308c0 40.408615-14.178462 77.272615-37.021538 107.126154l286.011077 143.044923C629.444923 504.248615 693.248 457.538462 768 457.538462 865.673846 457.538462 945.230769 537.095385 945.230769 634.769231S865.673846 812 768 812 590.769231 732.443077 590.769231 634.769231c0-8.900923 1.417846-17.408 2.599385-25.915077l-304.836923-152.418462C258.048 481.326769 219.608615 496.923077 177.230769 496.923077 79.478154 496.923077 0 417.366154 0 319.692308S79.478154 142.461538 177.230769 142.461538c42.456615 0 80.896 15.596308 111.458462 40.566154l306.176-141.154462C592.344615 29.821538 590.769231 17.376 590.769231 4.615385c0-97.673846 79.556923-177.230769 177.230769-177.230769S945.230769-93.058462 945.230769 4.615385 865.673846 181.846154 768 181.846154zM768 772.615385c76.012308 0 137.846154-61.833846 137.846154-137.846154S844.012308 496.923077 768 496.923077 630.153846 558.756923 630.153846 634.769231 691.987692 772.615385 768 772.615385zM177.230769 181.846154C101.218462 181.846154 39.384615 243.68 39.384615 319.692308S101.218462 457.538462 177.230769 457.538462 315.076923 395.704615 315.076923 319.692308 253.243077 181.846154 177.230769 181.846154zM768-133.230769C691.987692-133.230769 630.153846-71.396923 630.153846 4.615385S691.987692 142.461538 768 142.461538s137.846154-61.833846 137.846154-137.846154S844.012308-133.230769 768-133.230769z"  horiz-adv-x="1024" />

    
    <glyph glyph-name="play-o" unicode="&#58888;" d="M380.225 102.857c0.098 0.206 0.13 0.023 0.228 0.341-0.175 0.623-0.282 0.542-0.407 0.748l0.179-1.089zM511.803 736.013c-247.421 0-448.012-200.586-448.012-448.012 0-247.421 200.591-448.012 448.012-448.012 247.426 0 448.021 200.591 448.021 448.012 0 247.425-200.595 448.012-448.021 448.012v0zM511.807-115.21c-222.691 0-403.214 180.519-403.214 403.21s180.523 403.21 403.214 403.21 403.214-180.519 403.214-403.21-180.522-403.21-403.214-403.21v0zM725.013 315.446l0.233-0.162c4.619-2.979 7.419-4.977 7.841-5.627l-7.841 5.627c-48.578 31.41-308.683 180.214-317.191 180.214-8.095 0-15.045-3.938-19.815-9.744-3.195-3.141-7.289-12.038-8.539-16.684-1.42-5.215-0.905-361.15 0.735-365.873 3.705-13.852 22.015-24.744 35.868-21.039 3.244 1.089 6.124 2.747 8.664 4.955l300.879 172.72c12.061 3.239 19.319 14.547 18.642 26.536 0.677 12.033-7.418 25.832-19.475 29.076v0zM433.991 150.141v272.556l237.386-136.304-237.386-136.251zM433.991 150.141z"  horiz-adv-x="1024" />

    
    <glyph glyph-name="sandiancaidan" unicode="&#58902;" d="M518.619256 588.035112c45.112454 0 81.688487 36.276205 81.688487 81.029478 0 44.732807-36.576033 81.010035-81.688487 81.010035-45.11143 0-81.688487-36.277228-81.688487-81.010035C436.929746 624.311317 473.506802 588.035112 518.619256 588.035112zM518.619256 381.821517c-45.11143 0-81.688487-36.277228-81.688487-81.030501 0-44.75225 36.577057-81.010035 81.688487-81.010035 45.112454 0 81.688487 36.257785 81.688487 81.010035C600.307743 345.544289 563.73171 381.821517 518.619256 381.821517zM518.619256 13.547942c-45.11143 0-81.688487-36.276205-81.688487-81.009012 0-44.75225 36.577057-81.029478 81.688487-81.029478 45.112454 0 81.688487 36.276205 81.688487 81.029478C600.307743-22.728262 563.73171 13.547942 518.619256 13.547942z"  horiz-adv-x="1024" />

    
    <glyph glyph-name="rili" unicode="&#58889;" d="M1022.970554 469.357176l0 6.480598L1022.970554 731.490362l-40.932248 0 0-0.166799L854.807576 731.323563c-11.30344 0-20.466124-9.162684-20.466124-20.466124l0 0c0-11.30344 9.162684-20.466124 20.466124-20.466124l127.229706 0 0-214.553541-939.39509 0L42.642193 690.391315l127.572514 0c11.30344 0 20.466124 9.162684 20.466124 20.466124l0 0c0 11.30344-9.162684 20.466124-20.466124 20.466124L42.643216 731.323563l0 0.166799-40.932248 0 0-255.652588 0-6.480598 0-624.557542c0-28.776394 23.411199-52.188616 52.188616-52.188616l916.882354 0c28.776394 0 52.188616 23.412223 52.188616 52.188616L1022.970554 469.357176zM970.781938-166.456734l-916.882354 0c-6.101975 0-11.256368 5.154393-11.256368 11.256368L42.643216 434.905526l939.39509 0 0-590.106916C982.038306-161.302341 976.883913-166.456734 970.781938-166.456734zM253.444293 627.969637c11.30344 0 20.466124 9.502421 20.466124 21.224394L273.910417 778.660684c0 11.721973-9.162684 21.224394-20.466124 21.224394s-20.466124-9.502421-20.466124-21.224394l0-129.467677C232.978169 637.472058 242.140853 627.969637 253.444293 627.969637zM765.097392 627.969637c11.30344 0 20.466124 9.502421 20.466124 21.224394L785.563516 778.660684c0 11.721973-9.162684 21.224394-20.466124 21.224394s-20.466124-9.502421-20.466124-21.224394l0-129.467677C744.631268 637.472058 753.793952 627.969637 765.097392 627.969637zM342.316389 690.391315 680.31852 690.391315c11.405771 0 20.651342 9.162684 20.651342 20.466124l0 0c0 11.30344-9.246595 20.466124-20.651342 20.466124L342.316389 731.323563c-11.405771 0-20.651342-9.162684-20.651342-20.466124l0 0C321.664024 699.555022 330.910619 690.391315 342.316389 690.391315zM681.186284 74.360983l0 120.750131c0 49.466622-40.243563 89.710184-89.710184 89.710184-49.465598 0-89.709161-40.243563-89.709161-89.710184l0-120.750131c0-49.465598 40.243563-89.709161 89.709161-89.709161C640.942721-15.348178 681.186284 24.895385 681.186284 74.360983zM542.699186 74.360983l0 120.750131c0 26.895557 21.881356 48.777937 48.776913 48.777937s48.777937-21.88238 48.777937-48.777937l0-120.750131c0-26.895557-21.88238-48.776913-48.777937-48.776913S542.699186 47.465426 542.699186 74.360983zM423.994644 6.277352 423.994644 263.194746c0 11.567453-9.162684 20.944008-20.466124 20.944008-6.018064 0-11.411911-2.673899-15.156188-6.90527-4.551666-3.589758-8.879228-7.970532-12.082176-11.172457l-32.454156-32.454156c-7.992021-7.992021-7.993045-20.951171 0-28.943193l0 0c7.993045-7.993045 20.951171-7.993045 28.944216 0l10.282181 10.282181 0-208.667483c0-11.567453 9.162684-20.944008 20.466124-20.944008S423.994644-5.289078 423.994644 6.277352z"  horiz-adv-x="1024" />

    
    <glyph glyph-name="xiazaifujian" unicode="&#58912;" d="M871.121 441.539h-203.58v305.289c0.098 1.241 0.163 2.489 0.163 3.748 0 20.964-13.885 38.67-32.967 44.463-4.889 1.654-10.085 2.564-15.429 2.564-2.456 0-4.867-0.192-7.221-0.557h-206.602c-19.576 0-36.333-12.1-43.192-29.227-2.351-5.436-3.671-11.38-3.671-17.614v-308.665h-203.697c-25.696 0-46.515-21.54-46.515-47.212 0-8.882 2.495-17.357 6.819-24.644 1.996-3.494 4.475-6.786 7.459-9.765l331.611-401.779c11.029-11.028 26.257-15.3 40.55-12.84 15.996-5.011 34.157-1.196 46.84 11.471l360.14 401.921c4.697 4.697 8.292 10.277 10.743 16.279 3.232 6.828 5.067 14.343 5.067 21.934-0 25.695-20.844 44.635-46.517 44.635zM499.077 48.37l-245.942 298.003h152.781c2.521 0 4.993 0.222 7.404 0.633 22.657 3.191 40.095 22.649 40.095 46.186l0 309.406h119.214v-308.664c0-19.683 12.198-36.508 29.451-43.36 5.676-2.681 11.936-4.2 18.52-4.2h145.659l-267.183-298.004zM834.548-128.903h-643.883c-25.764 0-47.769-20.891-47.769-46.655s20.89-48.442 46.679-48.442h644.973c25.763 0 46.655 21.053 46.655 46.818 0 25.764-20.892 48.279-46.655 48.279z"  horiz-adv-x="1024" />

    
    <glyph glyph-name="zuojiantou" unicode="&#58891;" d="M488.541729-49.438601 554.037419 16.046856 287.645233 282.308059 913.666102 282.308059 913.666102 374.933643 287.645233 374.933643 554.037419 641.210195 488.541729 706.685419 110.332874 328.620851Z"  horiz-adv-x="1024" />

    
    <glyph glyph-name="zanting" unicode="&#58910;" d="M512 892.82933333c-278.08144 0-503.496-225.41344-503.496-503.496s225.41344-503.496 503.496-503.496 503.496 225.41344 503.496 503.496-225.41344 503.496-503.496 503.496zM512-65.90410667000003c-251.43328001 0-455.23744 203.80528001-455.23744 455.23744s203.80528001 455.23744 455.23744 455.23744 455.23744-203.80528001 455.23744-455.23744-203.80528001-455.23744-455.23744-455.23744zM418.256 135.56933332999995h-3.528c-16.38 0-29.79871999 13.41871999-29.79871999 29.79871999v448.18144001c0 16.38 13.41871999 29.79871999 29.79871999 29.79872h3.59071999c16.38 0 29.79871999-13.41871999 29.79872001-29.79872v-448.18144001c-0.06271999-16.38-13.41871999-29.79871999-29.86256-29.79871999zM607.69728001 137.90005331999998h-2.96128001c-16.38 0-29.79871999 13.41871999-29.79871999 29.79872001v443.268c0 16.38 13.41871999 29.79871999 29.79871999 29.79872h2.96128001c16.38 0 29.79871999-13.41871999 29.79871999-29.79872v-443.268c0-16.38-13.41871999-29.79871999-29.79871999-29.79872001z"  horiz-adv-x="1024" />

    
    <glyph glyph-name="lababofang" unicode="&#59127;" d="M560.448 714.528C531.584 727.648 498.496 723.36 474.112 703.328L245.44 490.656 135.936 490.656c-39.296 0-71.168-31.872-71.168-71.232l0-239.552c0-39.296 31.872-71.104 71.168-71.104l109.44 0 229.376-212.672 0.256-0.256c14.784-11.776 32.832-17.792 51.136-17.792 10.88 0 22.016 2.176 32.384 6.656 28.032 12.032 46.272 37.12 49.024 67.2C607.872-45.472 608-42.656 608-39.968L608 640.608c0 0.832 0 1.792 0 2.688C606.976 674.272 588.736 701.6 560.448 714.528zM563.968-28.384c0-1.536-0.128-3.2-0.256-4.928-1.408-16.064-11.264-29.568-26.304-35.968-15.36-6.592-32.256-4.288-45.248 5.952L266.624 145.76c-2.816 2.432-6.272 3.712-9.792 4.032-1.152 0.128-2.432 0.256-3.712 0.256L142.72 149.92c-18.752 0-33.92 15.232-33.92 33.984L108.8 415.392c0 18.816 15.168 33.984 33.92 33.984l109.632 0c0.256 0 0.576 0.064 0.896 0.064 4.416-0.384 8.896 0.896 12.544 3.904L491.52 662.688c13.376 11.008 30.976 13.312 46.912 6.016 15.552-6.976 25.024-21.312 25.472-38.08C563.968 630.112 563.968 629.6 563.968 629.088L563.968-28.384zM910.72 504.672c-27.776 55.04-67.264 104.448-114.752 144-7.872 6.592-19.648 5.184-25.728-2.88l0-0.064c-5.888-7.616-4.736-18.56 2.752-24.768 95.616-79.296 150.272-194.944 150.272-319.936 0-124.16-54.016-239.36-148.864-318.656-7.36-6.272-8.512-17.216-2.624-24.832 6.144-8.128 17.984-9.408 25.728-2.944 47.104 39.552 86.272 88.96 113.728 143.68 31.744 63.168 48 131.392 48 202.688C959.232 372.64 942.976 441.184 910.72 504.672zM692.992 496.416C684.736 502.88 672.768 500.96 666.88 492.384c-5.248-7.808-3.648-18.304 3.648-24.192 51.136-40.832 81.152-102.656 81.152-168.512 0-64.768-29.376-126.144-79.232-166.976-7.232-5.952-8.64-16.448-3.392-24.192 6.144-8.704 18.24-10.304 26.368-3.584 58.112 47.616 92.224 119.104 92.224 194.688C787.648 376.544 752.64 448.8 692.992 496.416z"  horiz-adv-x="1024" />

    
    <glyph glyph-name="geshou" unicode="&#58882;" d="M527.95716563 116.80006773000002l97.46904483 85.21055997c10.88468914 9.54611895 17.26051028 23.21362506 18.35250176 39.48782048 2.07830635 30.29395684-14.40724226 68.61933478-43.99668847 102.43584472-45.37048419 51.85198193-106.31065317 71.4726028-137.20344403 44.38416932l-97.50427036-85.21055997c-10.35630617-9.01773598-25.99644203-30.2587313-14.65382098-71.19079856 0.56360849-1.97262975 1.47947231-4.01571056 2.11353188-6.02356584l-92.25566622-105.18343616c-9.33476577-10.63811043-9.33476577-26.48959946-0.03522553-37.12770988l1.40902125-1.62037445-4.54409352-3.87480842C245.34272882 67.97748148000005 243.93370756 50.18858823000005 254.07866055 38.388035270000046c5.60085946-6.51672327 13.45615292-9.86314873 21.41712297-9.86314872 6.48149774 0 12.99822101 2.21920846 18.31727622 6.72807645l5.14292756 4.4031914c5.53040839-5.84743817 12.92776995-9.08818705 20.50125916-9.08818705 5.4247318 0 10.88468914 1.54992337 15.64013585 4.75544671l64.32181998 43.11605019 1.90217868-161.26248184c0-15.56968478 12.6459657-28.18042496 28.18042496-28.18042496 15.56968478 0 28.18042496 12.61074017 28.18042496 28.18042496l-1.90217868 195.04376626c12.25848486-5.21337861 24.30561653-8.45412749 35.33120779-8.45412748C505.41282567 103.76662119000002 518.12924243 108.27548917000001 527.95716563 116.80006773000002zM499.38925983 345.06150991000004c9.51089342 0 33.60515676-10.35630617 57.94599883-38.14925029 27.15888455-31.03369299 32.26658658-57.87554776 30.99846745-62.38441576l-25.39760799-22.33298678-88.48653437 101.20295114L499.38925983 345.06150991000004zM324.31836977 95.94655325999997l-5.35428075 6.16446796 62.27873917 71.01467089c3.06462122-4.01571056 6.05879137-8.06664664 9.47566788-11.94145507 3.87480843-4.43841693 7.89051899-8.66548068 12.01190614-12.68119124L324.31836977 95.94655325999997zM433.16526118 198.27672140000004c-27.19411008 31.03369299-32.26658658 57.87554776-30.99846746 62.38441574l29.65989727 25.74986332 88.73311309-101.44952986-28.10997389-24.7283229c0 0-0.42270638-0.1056766-1.33857019-0.10567659C481.60036657 160.12747111 457.43565218 170.44855174999998 433.16526118 198.27672140000004zM925.89999161 20.81049521c-1.93740421 16.66167626-3.62822971 46.42725012-5.28382969 75.17128358-1.83172761 32.30181211-3.73390631 65.6956157-6.30537009 85.49236422-5.60085946 43.60920763-13.7731827 94.93280658-32.12568445 145.3053162-11.94145508 32.83019508-34.83805036 51.21792237-53.4019053 63.54685828-23.31930166 15.56968478-63.793437 28.14519942-75.94624526 31.70297809-4.08616163 1.19766805-28.1099739 8.20754877-33.99263761 10.39153171-26.20779521 9.96882533-50.97134364 19.37404216-64.70930082 38.14925029-10.35630617 14.12543802-15.85148904 39.66394813 33.88696102 112.86260196 14.47769333 21.31144638 13.31525079 44.7011991 12.43461251 63.51163275l-0.35225531 7.96097005c-0.21135318 10.95514021-6.19969349 19.79674854-7.15078284 21.13531872-0.56360849 0.81018723-1.12721701 1.54992337-1.76127655 2.36011059l-0.17612766 12.2937104c-0.17612765 17.7184422-0.38748085 36.07094395-2.85326803 54.8813776-9.89837427 75.73489208-56.07904568 125.6494698-130.12311224 140.51464396-34.34489292 6.90420411-68.47843265 6.16446795-101.27340221-2.25443401-66.08309652-16.87302945-107.29696804-60.41178602-119.13274652-125.93127402-1.90217868-10.3915317-2.71236591-20.88874-3.45210206-31.35072278-0.52838296-7.08033177-1.02154041-14.12543802-2.04308081-21.10009319s-0.88063827-13.80840824-0.56360849-20.71261234c0.38748085-8.48935301 0.38748085-11.65965082-1.7965021-15.53445927-14.97085076-26.06689309-11.27216999-64.28659444 8.77115727-90.84664495 5.77698712-7.67916581 9.68702108-16.66167626 14.2311146-27.05320797l3.34642547-7.57348921c4.50886799-9.96882533 9.68702108-19.72629748 15.28788054-29.16673983 8.38367642-14.01976142 5.0724765-38.07879923-6.69285094-48.50555647-21.1000932-18.81043366-47.69536924-31.63252701-86.12642378-41.56612681-24.58742078-6.37582115-46.88518203-16.23896988-70.20448367-26.56005053-35.93004182-15.88671457-59.42547113-43.60920763-71.82485812-84.78785359-22.12163359-73.72703681-30.68143767-188.49181746-36.9163567-272.29335618l-1.86695316-24.65787184c-1.40902125-18.38772729 6.62239987-32.68929295 23.88291016-42.48199062 28.88493558-16.41509754 59.56637326-29.97692706 91.26935134-40.33323323 47.20221181-15.42878267 98.17355545-26.80662924 151.11752884-34.38011845l0 57.41761585c-46.77950543 7.00988071-92.0090875 16.90825497-133.61043983 30.50531003-25.99644203 8.48935301-51.21792237 19.44449323-75.84056867 32.9710972l1.37379572 16.87302944c6.05879137 81.23007495 14.30156566 192.43707695 34.69714822 260.28145004 7.64394027 25.46805905 19.76152301 40.22755663 42.41153957 50.23160749 20.36035704 9.01773598 39.6287226 17.54231453 59.70727539 22.75569315 46.92040756 12.11758274 81.68800686 29.27241643 109.48095097 54.00073934 32.02000786 28.4622292 39.98097791 82.04026217 17.68321666 119.4497763-4.50886799 7.60871474-8.7007062 15.49923373-12.36416145 23.53065483l-3.06462122 6.93942965c-5.21337861 11.94145508-11.13126786 25.43283353-20.85351446 38.39582901-7.36213603 9.72224661-7.85529345 23.81245908-4.96679991 28.84971005 10.53243383 18.31727622 9.79269768 35.1198546 9.26431471 46.21589694-0.14090213 3.31119993-0.49315745 6.58717433 0.03522552 9.96882533 1.19766805 8.31322537 1.7965021 16.73212732 2.43056166 25.1862548 0.59883403 8.45412749 1.16244253 16.9434805 2.67714037 25.36238247 7.92574452 43.99668847 32.61884189 69.85222837 77.63707077 81.37097707 24.55219524 6.27014455 50.0202543 6.79852752 76.22804951 1.5851489 50.61908834-10.18017851 78.55293457-40.47413534 85.35146211-92.60792151 2.00785528-15.4640082 2.18398293-31.31549723 2.36011058-48.11807563l0.21135319-16.16851881c0.28180425-13.28002526 5.21337861-21.8046038 9.15863811-26.98275691l0.1056766-2.74759144c0.59883403-12.04713167 1.12721701-23.42497826-2.74759144-29.13151429-38.81853538-57.10058607-73.05775171-122.86665283-32.72451848-177.8184815 23.6011059-32.19613552 58.96753923-45.65228844 90.84664497-57.76987118 5.45995734-2.07830635 32.79496954-10.18017851 37.72654391-11.62442529 21.06486766-6.16446795 47.8714969-16.1332933 60.34133494-24.44651865 17.6127656-11.69487636 26.45437393-21.76937829 31.59730149-35.89481629 16.45032308-45.19435653 24.02381228-92.71359811 29.23719089-133.22295899 2.25443399-17.78889326 4.12138715-50.16115643 5.88266372-81.47665367 1.5851489-27.79294412 3.09984675-54.21209252 5.00202543-72.95207512-49.70322452-26.91230584-105.99362339-46.03976929-171.8301412-58.4743818-66.01264548-12.46983805-136.42848234-17.40141242-206.35116176-15.81626351l0-56.53697757c7.25645943-0.14090213 14.40724226-0.81018723 21.6989272-0.81018721 66.92850928 0 132.5536739 5.98834031 195.11421732 17.75366772 73.76226233 13.91408483 136.95686531 35.82436523 193.10636205 66.96373481C924.7727746-13.851427489999992 927.66126815 6.2623508200000515 925.89999161 20.81049521z"  horiz-adv-x="1024" />

    
    <glyph glyph-name="paixingbang" unicode="&#58896;" d="M1002.624-85.269333 21.354667-85.269333C9.557333-85.269333 0-94.826667 0-106.624 0-118.442667 9.557333-128 21.354667-128l981.269333 0C1014.464-128 1024-118.442667 1024-106.624 1024-94.826667 1014.464-85.269333 1002.624-85.269333zM757.290667-29.866667l245.333333 0c11.84 0 21.376 9.557333 21.354667 21.376L1023.978667 334.933333c0 11.818667-9.514667 21.376-21.376 21.376L757.290667 356.309333c-11.84 0-21.354667-9.557333-21.354667-21.376l0-343.445333C735.936-20.309333 745.450667-29.866667 757.290667-29.866667zM778.666667 313.578667l202.581333 0 0-300.714667L778.666667 12.864 778.666667 313.578667zM389.333333-29.866667l245.312 0c11.861333 0 21.376 9.557333 21.376 21.376L656.021333 874.645333C656.021333 886.442667 646.506667 896 634.645333 896L389.333333 896c-11.797333 0-21.354667-9.557333-21.354667-21.354667l0-883.136C367.978667-20.309333 377.536-29.866667 389.333333-29.866667zM410.709333 853.269333l202.581333 0 0-840.405333-202.581333 0L410.709333 853.269333zM21.354667-29.866667l245.333333 0c11.797333 0 21.376 9.557333 21.333333 21.376L288.021333 531.2c0 11.776-9.578667 21.354667-21.354667 21.354667L21.354667 552.554667C9.557333 552.554667 0 542.997333 0 531.2l0-539.690667C0-20.309333 9.557333-29.866667 21.354667-29.866667zM42.730667 509.824l202.581333 0 0-496.938667L42.730667 12.885333 42.730667 509.824z"  horiz-adv-x="1024" />

    
    <glyph glyph-name="iconset0163" unicode="&#58943;" d="M945.32638953 893.93026313L945.32638953 893.93026313 945.32638953 893.93026313l-609.40096469-94.89733595 0 0c-9.14673118 0-19.43680376-9.14673118-19.43680376-24.01016936l0-699.72493506c-19.43680376 24.01016934-42.30363171 28.58353493-66.31380102 28.58353493l-94.89733597 0c-61.74043545 0-114.33413972-52.59370427-114.33413971-114.33413971s52.59370427-114.33413972 114.33413971-114.33413972l94.89733597 0c61.74043545 0 114.33413972 52.59370427 114.33413971 114.33413972L364.50895977 526.91767465 921.31622017 612.66827944l0-391.02275783c-19.43680376 14.86343816-42.30363171 24.01016934-72.03050801 24.01016933l-94.89733596 0c-61.74043545 0-114.33413972-52.59370427-114.33413973-114.3341397s52.59370427-114.33413972 114.33413973-114.33413973l94.89733596 0c61.74043545 0 114.33413972 52.59370427 114.33413972 114.33413973L963.61985188 869.92009379C969.33655886 883.64019057 960.1898277 893.93026313 945.32638953 893.93026313zM250.17482006-82.48329004000004l-94.89733597 0c-37.73026612 0-72.03050803 33.15690051-72.03050804 72.03050802s33.15690051 72.03050803 72.03050804 72.03050801l94.89733597 0c37.73026612 0 72.03050803-33.15690051 72.03050801-72.03050801C316.48862108-49.32638953000003 287.90508614-82.48329004000004 250.17482006-82.48329004000004zM855.00241915 60.43438461000005l-94.89733598 0c-37.73026612 0-72.03050803 33.15690051-72.03050801 72.03050801s33.15690051 72.03050803 72.03050801 72.03050801L855.00241915 204.49540062999995c37.73026612 0 72.03050803-33.15690051 72.03050803-72.03050801C921.31622017 89.01791951999996 892.73268526 60.43438461000005 855.00241915 60.43438461000005zM921.31622017 660.68861813l-556.8072604-85.75060481L364.50895977 760.1593196700001l556.8072604 85.75060477C921.31622017 845.9099244399999 921.31622017 660.68861813 921.31622017 660.68861813z"  horiz-adv-x="1024" />

    
    <glyph glyph-name="information" unicode="&#59332;" d="M511.524-127.759c282.305 0 511.157 228.853 511.157 511.156 0 282.31-228.852 511.163-511.157 511.163-282.31 0-511.163-228.853-511.163-511.163 0-282.303 228.853-511.156 511.163-511.156v0zM511.523 88.229c30.337 0 54.925 24.593 54.925 54.925v317.594c0 30.336-24.589 54.925-54.925 54.925-30.331 0-54.924-24.589-54.924-54.925v-317.594c0-30.332 24.593-54.925 54.924-54.925v0zM511.523 565.381c30.337 0 54.925 24.593 54.925 54.925v3.343c0 30.337-24.589 54.926-54.925 54.926-30.331 0-54.924-24.589-54.924-54.926v-3.343c0-30.332 24.593-54.925 54.924-54.925v0zM510.408-43.397c-235.716 0.617-426.301 192.203-425.684 427.913 0.617 235.716 192.202 426.3 427.918 425.683 235.71-0.617 426.294-192.202 425.678-427.918-0.618-235.709-192.205-426.294-427.912-425.678v0zM510.408-43.397z"  horiz-adv-x="1024" />

    
    <glyph glyph-name="dengpao" unicode="&#58928;" d="M489.8515625 826.96875C318.20117187 826.96875 168.69921875 677.46679688 168.69921875 494.7421875c0-99.66796875 99.66796875-249.16992188 182.72460938-365.44921875 5.53710938-5.53710938 11.07421875-11.07421875 16.61132812-11.07421875l238.09570313 0c5.53710938 0 11.07421875 5.53710938 16.61132812 11.07421875 83.05664063 116.27929688 182.72460938 265.78125 182.72460938 365.44921875C805.46679688 677.46679688 661.50195313 826.96875 489.8515625 826.96875zM595.05664063 162.515625L384.64648437 162.515625c-71.98242188 105.20507813-166.11328125 249.16992188-166.11328124 332.2265625 0 155.0390625 127.35351563 287.9296875 276.85546874 287.9296875s276.85546875-132.890625 276.85546876-287.9296875C766.70703125 411.68554688 672.57617188 267.72070312000005 595.05664063 162.515625zM583.98242188 79.45898437000005L390.18359375 79.45898437000005c-11.07421875 0-22.1484375-11.07421875-22.1484375-22.14843749 0-11.07421875 11.07421875-22.1484375 22.1484375-22.1484375l193.79882813 0c11.07421875 0 22.1484375 11.07421875 22.14843749 22.1484375C606.13085938 68.38476562000005 595.05664063 79.45898437000005 583.98242188 79.45898437000005zM583.98242188 7.4765625L390.18359375 7.4765625c-11.07421875 0-22.1484375-11.07421875-22.1484375-22.1484375s11.07421875-22.1484375 22.1484375-22.1484375l60.90820313 0C456.62890625-53.43164062999995 489.8515625-58.96875 489.8515625-58.96875s33.22265625 5.53710938 33.22265625 22.1484375l60.90820313 0c11.07421875 0 22.1484375 11.07421875 22.1484375 22.1484375S595.05664063 7.4765625 583.98242188 7.4765625z"  horiz-adv-x="1024" />

    
    <glyph glyph-name="bi" unicode="&#58887;" d="M1001.779985 641.634014 764.882987 874.136014C738.818987 899.793014 696.337985 899.793014 670.207986 874.136014L78.078986 293.018015C55.872986 236.383013 15.984986-6.209985 2.619986-97.735984 12.658986-107.612985 18.182986-119.837986 30.746986-125.379985 118.968986-112.231984 377.405986-43.800986 409.713985-32.358986L1001.778987 548.687013C1027.908986 574.405015 1027.908986 616.053014 1001.778987 641.632014L1001.778987 641.632014 1001.778987 641.632014 1001.779985 641.634014ZM101.747986-55.596985 78.079986-32.358986 98.428986 87.163014 213.447986-25.751987 101.747986-55.596985 101.747986-55.596985ZM362.313987 14.180014 287.916985-5.856987 111.992986 166.819015 125.489986 246.544014 599.137985 711.419014 646.542985 664.944014 196.562986 223.306015 243.900986 176.838013 693.880986 618.468014 741.218987 571.998015 385.986987 223.307014 433.390985 176.839014 788.629985 525.453013 835.969985 478.978014 362.320987 14.182013 362.313987 14.180014ZM883.365985 525.451014 646.542985 757.885014 717.547986 827.661014 954.372986 595.159014 883.365985 525.451014 883.365985 525.451014Z"  horiz-adv-x="1024" />

    
    <glyph glyph-name="sandian" unicode="&#58923;" d="M532.45952 496.61952c33.93536 0 61.46048 27.50464 61.46048 61.44 0 33.93536-27.52512 61.44-61.46048 61.44-33.93536 0-61.46048-27.50464-61.46048-61.44C471.01952 524.14464 498.52416 496.61952 532.45952 496.61952zM532.45952 230.4c-33.93536 0-61.46048-27.50464-61.46048-61.44s27.52512-61.44 61.46048-61.44c33.93536 0 61.46048 27.50464 61.46048 61.44S566.39488 230.4 532.45952 230.4zM532.45952 424.96c-33.93536 0-61.46048-27.50464-61.46048-61.44 0-33.93536 27.52512-61.44 61.46048-61.44 33.93536 0 61.46048 27.50464 61.46048 61.44C593.92 397.45536 566.39488 424.96 532.45952 424.96z"  horiz-adv-x="1024" />

    
    <glyph glyph-name="shouyinji01" unicode="&#59112;" d="M109.679493 4.771933l800.560068 0c28.764114 0 49.919946 28.279067 49.919946 57.07081L960.159508 557.247786c0 28.764114-21.155832 54.242392-49.919946 54.242392L385.10645 611.490178l377.151779 124.684744c7.218402 2.396583 11.123338 9.682523 8.713452 16.914228-2.409886 7.217379-10.16757 11.904121-17.439184 9.507538L297.938158 611.490178 109.679493 611.490178c-28.777417 0-45.840024-25.478278-45.840024-54.242392l0-495.406067C63.839469 33.050999 80.902076 4.771933 109.679493 4.771933zM946.369434 70.729134c0-13.600763-11.015891-24.616654-24.603351-24.616654L116.021945 46.11248c-13.58746 0-24.603351 11.015891-24.603351 24.616654L91.418594 559.335331c0 13.574157 11.015891 24.590048 24.603351 24.590048l805.745161 0c13.58746 0 24.603351-11.015891 24.603351-24.590048L946.370457 70.729134zM891.211183 308.141288 891.211183 501.173676 518.893502 501.173676l0-193.032388L891.211183 308.141288zM546.472628 473.608877l317.15943 0 0-137.907906-135.362944 0 40.668235 57.567113c4.564969 6.099928 3.340071 16.415878-2.747577 20.980847-6.114255 4.564969-14.731516 0.835018-19.310811-5.251607l-53.098335-73.296353L546.472628 335.700971 546.472628 473.608877zM133.783471 487.397928c0 7.608282 6.166443 13.775748 13.790074 13.775748l305.160141 0c7.621585 0 13.790074-6.167466 13.790074-13.775748 0-7.622608-6.167466-13.790074-13.790074-13.790074l-305.160141 0C139.950937 473.608877 133.783471 479.776344 133.783471 487.397928zM133.783471 404.660552c0 7.621585 6.166443 13.790074 13.790074 13.790074l305.160141 0c7.621585 0 13.790074-6.167466 13.790074-13.790074 0-7.634888-6.167466-13.803377-13.790074-13.803377l-305.160141 0C139.950937 390.858198 133.783471 397.025665 133.783471 404.660552zM133.783471 321.931363c0 7.614421 6.166443 13.769608 13.790074 13.769608l305.160141 0c7.621585 0 13.790074-6.155187 13.790074-13.769608 0-7.621585-6.167466-13.790074-13.790074-13.790074l-305.160141 0C139.950937 308.141288 133.783471 314.308755 133.783471 321.931363zM133.783471 252.984061c0 7.594979 6.166443 13.789051 13.790074 13.789051l305.160141 0c7.621585 0 13.790074-6.194072 13.790074-13.789051 0-7.622608-6.167466-13.790074-13.790074-13.790074l-305.160141 0C139.950937 239.193986 133.783471 245.36043 133.783471 252.984061zM133.783471 170.219055c0 7.649214 6.166443 13.790074 13.790074 13.790074l305.160141 0c7.621585 0 13.790074-6.14086 13.790074-13.790074 0-7.594979-6.167466-13.790074-13.790074-13.790074l-305.160141 0C139.950937 156.428981 133.783471 162.624077 133.783471 170.219055zM796.04473 266.099776c-28.64234 0-51.939953-23.269983-51.939953-51.92665 0-28.630061 23.297612-51.925626 51.939953-51.925626 28.630061 0 51.925626 23.296589 51.925626 51.925626C847.970356 242.829793 824.67479 266.099776 796.04473 266.099776zM796.04473 189.826626c-13.425777 0-24.360827 10.93505-24.360827 24.346501 0 13.440104 10.93505 24.37413 24.360827 24.37413s24.347524-10.93505 24.347524-24.37413C820.392254 200.760652 809.470507 189.826626 796.04473 189.826626zM605.32092 266.099776c-28.64234 0-51.939953-23.269983-51.939953-51.92665 0-28.630061 23.297612-51.925626 51.939953-51.925626 28.630061 0 51.925626 23.296589 51.925626 51.925626C657.246547 242.829793 633.950981 266.099776 605.32092 266.099776zM605.32092 189.826626c-13.425777 0-24.360827 10.93505-24.360827 24.346501 0 13.440104 10.93505 24.37413 24.360827 24.37413s24.347524-10.93505 24.347524-24.37413C629.668445 200.760652 618.746698 189.826626 605.32092 189.826626z"  horiz-adv-x="1024" />

    
    <glyph glyph-name="tianjiawenjian" unicode="&#58897;" d="M822.359375 694.359375L460.278125 694.359375c0 57.121875-46.321875 103.44375-103.44375 103.44375L201.640625 797.803125c-57.121875 0-103.44375-46.321875-103.44375-103.44375l0-620.71875c0-57.121875 46.321875-103.44375 103.44375-103.44375l620.71875 0c57.121875 0 103.44375 46.321875 103.44375 103.44375L925.803125 590.915625C925.83125 648.0375 879.509375 694.359375 822.359375 694.359375zM874.08125 539.19375l-4.1625 0 0-51.721875 4.1625 0 0-413.83125c0-28.546875-23.175-51.721875-51.721875-51.721875L201.640625 21.918750000000045c-28.546875 0-51.721875 23.175-51.721875 51.721875L149.91875 487.44375l4.246875 0 0 51.721875L149.91875 539.165625 149.91875 694.359375c0 28.546875 23.175 51.721875 51.721875 51.721875l155.19375 0c28.546875 0 51.721875-23.175 51.721875-51.721875l0-51.721875 413.83125 0c28.546875 0 51.721875-23.175 51.721875-51.721875L874.109375 539.19375zM534.3875 540.515625l-33.553125 0L500.834375 372.75 333.096875 372.75l0-33.553125 167.765625 0 0-167.765625 33.553125 0 0 167.765625 167.765625 0L702.18125 372.75l-167.765625 0L534.415625 540.515625z"  horiz-adv-x="1024" />

    
    <glyph glyph-name="xinxi" unicode="&#59148;" d="M909.68215703 731.97188741L114.31784297 731.97188741c-54.68129659 0-99.42053925-44.73924267-99.42053927-99.42053926l0-497.1026963c0-54.68129659 44.73924267-99.42053925 99.42053927-99.42053926l795.36431406 0c54.68129659 0 99.42053925 44.73924267 99.42053927 99.42053926L1009.1026963 632.55134815C1009.1026963 687.23264475 964.36345363 731.97188741 909.68215703 731.97188741zM926.25224691 200.90050685999995l-164.04388977 203.81210549L926.25224691 568.75650213 926.25224691 200.90050685999995zM97.74775309 568.75650213l164.04388977-164.04388978L97.74775309 200.90050685999995 97.74775309 568.75650213zM580.76587298 340.08926183000005c-18.22709886-18.22709886-43.08223369-28.1691528-68.76587298-28.1691528s-50.53877413 9.94205392-68.76587298 28.1691528L134.20195082 649.12143803l754.76759387 0L580.76587298 340.08926183000005zM321.44396642 345.06028879999997l63.79484603-63.79484604c34.79718875-34.79718875 81.19344039-53.02428761 127.58969205-53.02428759s91.96399882 17.39859437 127.58969203 53.02428759l63.79484604 63.79484604 183.09949313-226.18172683L138.34447328 118.87856196999996 321.44396642 345.06028879999997z"  horiz-adv-x="1024" />

    
    <glyph glyph-name="menu" unicode="&#58920;" d="M108.065 613.811h807.686c21.101 0 38.348 17.247 38.348 38.348s-17.063 38.348-38.348 38.348h-807.686c-21.101 0-38.348-17.247-38.348-38.348s17.247-38.348 38.348-38.348zM915.751 422.256h-807.686c-21.101 0-38.348-17.247-38.348-38.348s17.247-38.348 38.348-38.348h807.686c21.101 0 38.348 17.247 38.348 38.348s-17.247 38.348-38.348 38.348zM915.751 154.189h-807.686c-21.101 0-38.348-17.063-38.348-38.348s17.247-38.348 38.348-38.348h807.686c21.101 0 38.348 17.063 38.348 38.348s-17.247 38.348-38.348 38.348z"  horiz-adv-x="1024" />

    
    <glyph glyph-name="pinglun" unicode="&#58942;" d="M72.75567781-101.33333332999996c-6.88770938 0-13.81617469 1.75249406-20.05179375 5.25748219C39.90660125-88.82134020000001 32-75.24969926999995 32-60.57765552000001L32 722.62421261C32 801.44569417 84.24877906 858.66666667 156.22330719 858.66666667l870.86733187 0C1104.89322875 858.66666667 1173.15899 795.08780823 1173.15899 722.62421261L1173.15899 140.83690697999998C1173.15899 43.553102920000015 1063.24092594 43.553102920000015 1027.09063906 43.553102920000015L324.34047969 43.553102920000015l-230.51411625-139.01761875C87.34621062-99.37706051999999 80.05094469-101.33333332999996 72.75567781-101.33333332999996zM156.22330719 777.15531011C122.51836156 777.15531011 113.51135656 742.8797851100001 113.51135656 722.62421261l0-711.02356219 178.42835906 107.63574656C298.29760156 123.02667480000002 305.5521125 125.06445947999998 313.01040125 125.06445947999998l714.08023781 0C1091.64763344 125.06445947999998 1091.64763344 135.70169073 1091.64763344 140.83690697999998L1091.64763344 722.62421261C1091.64763344 749.64522761 1059.04309062 777.15531011 1027.09063906 777.15531011L156.22330719 777.15531011zM928.62492031 573.3769191700001c0 22.49713406-18.21778781 40.75567781-40.75567781 40.75567781L317.2897475 614.1325979200001c-22.49713406 0-40.75567781-18.25854375-40.75567781-40.75567781s18.25854375-40.75567781 40.75567781-40.75567782L887.8692425 532.62124136C910.4071325 532.62124136 928.62492031 550.8797851100001 928.62492031 573.3769191700001zM765.60220719 328.84285042c0 22.53789-18.21778781 40.75567781-40.75567781 40.75567781L317.2897475 369.59852823000006c-22.49713406 0-40.75567781-18.21778781-40.75567781-40.75567781s18.25854375-40.75567781 40.75567781-40.75567781L724.84652937 288.08717167C747.38441938 288.08717167 765.60220719 306.30496042000004 765.60220719 328.84285042z"  horiz-adv-x="1218" />

    
    <glyph glyph-name="shangcheng" unicode="&#58911;" d="M921.55279147 713.01057813c-12.10830507 3.74939413-25.34961387 5.27534827-38.08554667 5.32883307-101.103744 0.41368853-202.207488 0.22922027-303.31450667 0.22922027-102.74867413 0-205.49298347 0-308.23729173 0.0120064-2.6622336 0-5.3364736 0.06985813-7.99434133-0.0862304-16.82588267-0.97582507-29.717904-17.16971413-26.93669334-33.78602347 0.37766827-2.2561856 0.95617707-4.36610667 1.68749974-6.35050133 13.7314048-50.86514027 27.45407787-101.73246293 41.18875626-152.5954208 11.21106987-41.5052992 22.34354987-83.02588053 33.66049814-124.5038912 3.0693728-11.2394496 11.20997867-19.1311872 21.19853866-21.67007787l-0.12225066-0.59379093c1.08825173-0.0010912 2.17650453-0.00327467 3.26475626-0.00545814 2.19506027-0.3001696 4.45124587-0.3754848 6.75218347-0.15390506 0.39185813 0.03820373 0.77280107 0.09168853 1.15810987 0.14189866 50.83676053-0.0764064 101.67352107-0.1604544 152.50918933-0.23249493 42.99305067-0.05785067 85.97955093-0.19647467 128.9736928-0.14408107 15.3250336 0.0207392 27.38203627 10.01366507 29.78776107 24.13146987 3.39246507 19.8897984-10.5965408 35.1427904-32.3506656 35.17117013-86.5798912 0.11351893-173.15869013 0.22048853-259.73748907 0.3329152-19.91599467 73.7173408-39.835264 147.4324992-59.75125867 221.14984107 191.12412693-0.00545813 382.2482528 0.00218347 573.37347094-0.04802667 6.33740373 0 12.67480747-0.718224 19.0154848-0.99656426 3.6467904-0.16482027 5.2709824-1.8293984 4.5778624-5.496928-1.10353387-5.82438613-1.8381312-11.75574187-3.4001056-17.4524192-26.92032107-98.1216928-54.07313707-196.18226133-80.849376-294.34543254-6.72271253-24.64667093-12.35498987-49.5891456-18.39222294-74.421376-3.4743296-14.2782592-15.64375893-22.809632-33.01868053-22.809632-155.4519456-0.00873173-310.90825707-0.00873173-466.36020267-0.00436586-1.6361984 0-3.28549547-0.04475307-4.91732693 0.06985813-15.75946133 1.10353387-26.608144 11.30057493-28.8195776 26.89849067-0.74551253 5.25897493-1.32402133 10.60308907-2.73536533 15.698336-37.34658347 134.74568533-74.79140373 269.462992-112.2154848 404.18466346-11.50905707 41.42343467-22.9406144 82.86324267-34.55773227 124.2582976-4.14234347 14.75416533-17.01035093 23.6784864-31.25477333 22.19837654-20.06989973-2.0837248-30.99717227-19.65948587-25.1727872-40.62007147 44.07366187-158.59335893 88.1953504-317.1703456 132.19915413-475.78444373 5.3026368-19.11808853 11.75901653-38.14994667 14.5980768-57.67080854 6.45528853-44.40112 42.85005973-78.3672448 87.82641387-78.42946133 158.73307413-0.212848 317.46942293-0.18774293 476.20249813-0.0120064 42.4243648 0.04475307 78.24936 30.1152192 86.53077227 71.68601067 1.11990613 5.615904 1.3785984 11.44029013 2.887088 16.93176106 29.0367904 105.8213216 58.33554773 211.56842027 87.2118848 317.43340267 5.37249387 19.70096427 10.60308907 39.63988053 13.326448 59.81565867C965.14509013 679.2540256 948.84968853 704.556704 921.55279147 713.01057813zM360.1926624 125.1700128c-49.7375936 2.80958933-91.24725867-35.2704992-93.91385813-86.15637867-2.4930464-47.600384 36.17319147-89.2213856 85.2755168-91.79302186 47.43665493-2.47776533 90.27907413 36.01273707 92.54399253 83.15031466C446.51386133 80.62917760000005 409.56131947 122.38116160000004 360.1926624 125.1700128zM355.21311787 6.5931104000000005c-16.45585493 0.04911893-29.64695467 13.400672-29.49195734 29.84452053 0.1604544 16.43511573 13.6549984 29.762656 29.89800534 29.51160534 16.25938027-0.25432533 29.65132053-14.04794773 29.34023573-30.2210976C384.64722453 19.657592529999988 371.2629248 6.548358399999984 355.21311787 6.5931104000000005zM711.58018347 125.26934186999995c-49.30316587 0.10260373-89.17117547-39.7173792-89.17554134-89.0620224 0-49.0532064 39.6638944-88.91794133 88.61013014-89.05329067 49.19947093-0.13534933 89.17554133 39.7948768 89.18318186 89.09804267C800.20668693 85.30200319999994 760.52205333 125.16673813 711.58018347 125.26934186999995zM711.1162848 6.5931104000000005c-16.139312 0.11024427-29.3347776 13.25659093-29.45812053 29.35988267-0.1277088 16.3532512 13.19109867 29.89800533 29.49959786 29.99951786 16.28011947 0.09823787 29.69279893-13.33845547 29.688432-29.73755093C740.84182827 19.755830400000036 727.51974613 6.482866130000048 711.1162848 6.5931104000000005z"  horiz-adv-x="1024" />

    
    <glyph glyph-name="wangyiyunyinlezizhi" unicode="&#58913;" d="M832.734 456.923c-56.894 56.894-131.069 90.209-210.685 95.095-5.188 14.374-9.853 29.997-13.819 47.408-5.766 25.34-10.037 54.487-12.247 89.135-0.54 8.453-0.955 17.237-1.241 26.372-0.275 8.86-0.429 18.055-0.449 27.6-0.033 0.003-0.063 0.006-0.096 0.014 0.025 0.241 0.065 0.48 0.093 0.723 6.292 55.136 53.979 97.884 111.133 96.249 40.274-1.151 75.42-24.587 93.189-58.465l53.723 10.323c-21.142 52.644-69.305 91.651-127.34 99.613-93.271 12.794-174.147-54.572-183.513-142.961-0.078-0.739-0.127-2.642-0.156-3.386l-0.001-7.121c0.019-6.297 0.171-16.098 0.575-27.381 0.195-5.497 0.447-10.912 0.739-16.268 2.96-54.194 10.854-101.245 23.909-142.773 0.032-0.096 0.061-0.189 0.092-0.286-29.62-3.127-58.368-10.229-85.626-21.027l-0.019-0.002-0.036-0.018c-40.919-16.218-78.475-40.783-110.535-72.844l10.174 9.103c-43.394-42.346-70.385-101.427-70.385-166.704 0-31.747 6.389-62.025 17.938-89.633 27.547-65.854 84.485-116.459 154.33-135.34 18.369-5.733 37.893-8.823 58.127-8.823 10.784 0 21.364 0.893 31.678 2.58 92.771 15.184 163.793 95.894 163.793 192.894 0 22.158-3.713 43.466-10.538 63.337-14.018 58.021-36.58 97.553-58.583 136.065-6.707 11.744-13.348 23.374-19.732 35.457 10.878-1.833 21.54-4.308 31.948-7.387 113.361-33.54 196.318-138.609 196.318-262.703 0-63.874-21.981-122.709-58.77-169.346-26.116-29.22-56.639-54.414-90.519-74.54-57.124-33.93-123.765-53.451-194.889-53.451-29.23 0-57.7 3.307-85.071 9.54-170.277 38.79-297.741 191.42-297.741 373.27 0 189.438 138.325 347.151 319.27 377.507l-6.982 52.618c-89.401-14.462-171.826-56.34-237.196-121.531-81.632-81.407-127.815-192.277-128.081-307.564-0.27-117.162 45.377-227.331 128.431-309.974 82.701-82.291 195.403-128.055 312.063-126.83 77.782 0.816 152.314 21.901 217.565 60.725 28.807 15.166 55.483 34.745 79.158 58.42 8.569 8.569 16.582 17.542 24.063 26.852 46.441 57.789 71.683 129.1 71.683 204.302 0 33.343-4.972 65.916-14.541 96.891-15.489 50.145-43.039 96.096-81.207 134.261zM396.017 479.823c0.822 0.675 1.661 1.332 2.494 1.997-0.891-0.706-1.776-1.42-2.657-2.14l0.161 0.143zM674.59 309.492c3.548-15.079 6.433-31.558 8.484-49.883-0.669-69.671-51.591-127.538-118.187-139.020-7.101-0.854-14.323-1.307-21.648-1.307-15.764 0-31.057 2.044-45.638 5.867-77.243 20.256-134.396 90.66-134.396 174.167 0 23.884 4.686 46.69 13.169 67.564 10.769 26.499 27.665 49.878 48.931 68.355 3.748 3.161 7.575 6.226 11.491 9.183 42.125 31.826 93.694 51.779 149.692 54.835 4.713-10.319 9.597-20.058 14.564-29.424 5.293-9.98 10.678-19.541 16.038-28.953 1.29-2.263 2.577-4.517 3.861-6.766 21.135-36.993 41.358-72.423 53.638-124.622z"  horiz-adv-x="1024" />

    
    <glyph glyph-name="saoyisao" unicode="&#58925;" d="M861.43076-59.12032799999997L692.24552-59.12032799999997c-12.684924 0-21.14154 8.4672-21.14154 21.146832 0 12.690216 8.456616 21.152124 21.14154 21.152124l169.190532 0c35.953848 0 63.445788 27.486648 63.445788 63.435204l0 169.190532c0 12.679632 8.456616 21.14154 21.14154 21.14154s21.152124-8.461908 21.152124-21.14154l0-169.190532C967.175504-12.598355999999967 920.64824-59.12032799999997 861.43076-59.12032799999997L861.43076-59.12032799999997zM355.997132-59.12032799999997L184.700384-59.12032799999997c-59.21748 0-105.739452 46.521972-105.739452 105.73416l0 169.190532c0 12.679632 8.461908 21.14154 21.146832 21.14154s21.152124-8.461908 21.152124-21.14154l0-169.190532c0-35.948556 27.49194-63.435204 63.445788-63.435204l171.296748 0c12.690216 0 21.146832-8.461908 21.146832-21.152124C377.143964-50.65841999999998 366.570548-59.12032799999997 355.997132-59.12032799999997L355.997132-59.12032799999997zM100.107764 533.0227199999999c-12.684924 0-21.146832 8.461908-21.146832 21.146832L78.960932 723.3495c0 59.21748 46.527264 105.739452 105.739452 105.739452l171.296748 0c12.690216 0 21.146832-8.461908 21.146832-21.146832s-8.456616-21.152124-21.146832-21.152124L184.700384 786.789996c-35.953848 0-63.445788-27.49194-63.445788-63.445788l0-169.179948C121.254596 541.479336 112.792688 533.0227199999999 100.107764 533.0227199999999L100.107764 533.0227199999999zM946.02338 533.0227199999999c-12.684924 0-21.14154 8.461908-21.14154 21.146832L924.88184 723.3495c0 35.953848-27.49194 63.445788-63.445788 63.445788l-167.06844 0c-12.684924 0-21.146832 8.461908-21.146832 21.152124s8.461908 21.146832 21.146832 21.146832l167.06844 0c59.212188 0 105.739452-46.527264 105.739452-105.739452l0-169.179948C967.175504 541.479336 958.708304 533.0227199999999 946.02338 533.0227199999999L946.02338 533.0227199999999zM15.515144 384.984312c0 12.684924 8.461908 21.146832 21.146832 21.146832l972.807192 0c12.684924 0 21.146832-8.461908 21.146832-21.146832 0-12.684924-8.461908-21.152124-21.146832-21.152124L36.661976 363.832188C23.97176 363.832188 15.515144 372.299388 15.515144 384.984312L15.515144 384.984312z"  horiz-adv-x="1024" />

    
    <glyph glyph-name="n" unicode="&#59226;" d="M512 778.463c-206.368 0-373.702-167.337-373.702-373.702v-290.658c0-68.927 55.64-124.567 124.568-124.567h124.567v332.18h-166.091v83.046c0 160.691 129.965 290.658 290.658 290.658s290.658-129.965 290.658-290.658v-83.046h-166.091v-332.18h124.567c68.927 0 124.568 55.64 124.568 124.567v290.658c0 206.368-167.337 373.702-373.702 373.702z"  horiz-adv-x="1024" />

    
    <glyph glyph-name="vip" unicode="&#58956;" d="M512.268258 777.934759L853.425824 580.967892v-393.93476L512.268258-9.934759 171.110692 187.032108V580.967892L512.268258 777.934759m0 53.621899L124.672373 607.778329v-447.556658l387.594861-223.778329 387.595885 223.778329V607.778329L512.268258 831.556658zM296.883741 511.059049l57.55669-202.715983c6.516006 25.294063 14.117331 53.659782 22.804998 85.096133s19.78556 71.001328 33.302894 118.705169h49.592909L386.294527 255.853584h-64.796583c-14.722447 51.810645-28.359576 98.683091-40.905242 140.617339-12.550786 41.929128-24.253796 80.12517-35.113124 114.588126h51.404163zM492.357784 511.782936h46.696338v-255.928328h-46.696338V511.782936zM587.922121 511.782936h100.633593c26.301566 0 47.964932-7.629993 64.97781-22.88998 17.013902-15.259987 25.521366-35.740765 25.521366-61.453597 0-15.379781-3.512951-29.315885-10.526565-41.810357-9.434079-16.583871-22.743565-28.235686-39.914122-34.965684-13.066825-5.045707-31.092326-7.56856-54.078551-7.568561H635.342346v-87.240149h-47.420225V511.782936z m96.115187-129.23071c14.049754 0 25.191675 4.581887 33.426784 13.755899 8.23511 9.168893 12.358296 20.870878 12.358296 35.113124 0 13.269554-4.728302 23.224791-14.174669 29.864687-9.446366 6.634777-20.955861 9.955237-34.519269 9.955237h-45.787128v-88.687923h48.695986z"  horiz-adv-x="1024" />

    
    <glyph glyph-name="qingkong" unicode="&#58965;" d="M682.65984 554.67008h56.89344v-455.1168h-56.89344V554.67008zM540.44672 99.55328V554.67008h-56.89344v-455.1168h56.89344z m-256 455.1168h56.8832v-455.1168h-56.8832V554.67008z m455.10656 170.65984V839.1168C739.55328 870.38976 713.97376 896 682.65984 896H341.32992c-31.30368 0-56.8832-25.61024-56.8832-56.8832v-113.78688H0v-56.8832h113.77664v-739.55328c0-31.2832 25.58976-56.89344 56.89344-56.89344h682.65984c31.30368 0 56.89344 25.61024 56.89344 56.89344V668.44672H1024v56.89344H739.55328zM341.32992 839.1168h341.32992v-113.78688H341.32992V839.1168z m512-910.2336H170.67008V668.45696h682.65984v-739.55328z"  horiz-adv-x="1024" />

    
    <glyph glyph-name="yinpinliebiaobofangzhong" unicode="&#59002;" d="M503.327 838.736l-279.214-254.516h-144.603v-393.275h144.603l273.181-247.54s50.149-51.281 50.149 1.696v892.881c0 41.287-44.116 0.753-44.116 0.753zM703.17 660.951c-14.33 17.534-37.517 17.534-52.034 0s-14.33-46.001 0-63.535c47.322-57.878 70.7-133.104 70.889-208.893-0.189-75.979-23.568-151.579-70.889-209.079-14.33-17.534-14.33-46.001 0-63.724 7.165-8.861 16.59-13.009 26.017-13.009s18.665 4.335 26.017 13.009c61.648 75.225 92.38 174.391 92.38 272.993 0 98.412-30.918 197.204-92.38 272.24zM802.903 802.35c-14.517 17.534-37.706 17.534-52.223 0-14.33-17.723-14.33-46.001 0-63.724 79.373-96.905 119.152-223.598 119.152-350.478 0-127.635-39.402-254.894-119.152-352.175-14.33-17.534-14.33-46.001 0-63.724 7.165-8.673 16.779-13.009 26.207-13.009s18.853 4.335 26.017 13.009c93.699 115.002 140.644 265.639 140.644 415.9 0 149.882-47.322 299.953-140.644 414.204z"  horiz-adv-x="1024" />

    
    <glyph glyph-name="suo" unicode="&#59040;" d="M162.47466667 433.024v109.22666666c0 192.23893333 157.2864 349.52533333 349.52533333 349.52533334s349.52533333-157.2864 349.52533333-349.52533334v-109.22666666h43.69066667c24.02986667 0 43.69066667-19.6608 43.69066667-43.69066667v-458.752c0-24.02986667-19.6608-43.69066667-43.69066667-43.69066667h-786.432c-24.02986667 0-43.69066667 19.6608-43.69066667 43.69066667v458.752c0 24.02986667 19.6608 43.69066667 43.69066667 43.69066667h43.69066667z m43.69066666 0h611.66933334v109.22666666c0 168.20906667-137.6256 305.83466667-305.83466667 305.83466667s-305.83466667-137.6256-305.83466667-305.83466667v-109.22666666z m327.68-279.62026667v-91.7504c0-13.1072-8.73813333-21.84533333-21.84533333-21.84533333s-21.84533333 8.73813333-21.84533333 21.84533333v91.7504c-19.6608 8.73813333-32.768 28.39893333-32.768 50.24426667 0 30.58346667 24.02986667 54.61333333 54.61333333 54.61333333s54.61333333-24.02986667 54.61333333-54.61333333c0-21.84533333-13.1072-41.50613333-32.768-50.24426667z m371.37066667-222.8224v458.752h-786.432v-458.752h786.432z"  horiz-adv-x="1024" />

    
    <glyph glyph-name="shipin" unicode="&#58944;" d="M795.06906523 745.59307074h-566.14223186c-125.0524692 0-226.44595684-102.2438214-226.44595682-228.37082932v-266.44311483c0-126.12700792 101.39348762-228.37082932 226.44595682-228.3708293h566.14223186c125.06750678 0 226.44732352 102.2438214 226.44732351 228.3708293V517.22224142c0 126.12700792-101.37844871 228.37082932-226.44732351 228.37082932z m160.70362618-448.61836852c0-115.31053554-95.37689292-208.82134093-213.02653165-208.82134091H281.23743464c-117.63733452 0-213.01149407 93.5108054-213.01149407 208.82134091V471.02803115c0 115.30916884 95.37415955 208.81997425 213.01149407 208.81997422h461.50872512c117.65100541 0 213.02653166-93.5108054 213.02653165-208.81997422v-174.05332893z m-558.48922266-76.9470573l295.83159978 164.13503905-295.83159978 164.13367369v-328.26871274z"  horiz-adv-x="1024" />

    
    <glyph glyph-name="liebiaoxunhuan" unicode="&#58916;" d="M925.1 295.3c-26.3 8.7-54.7-5.8-63.4-32.6-35.2-109-134.3-182.3-246.6-182.3H423.5C280.4 80.5 164 199 164 344.8c0 145.7 116.4 264.3 259.4 264.3h264.3c1.3-17.6 3.4-35.1 6.1-52.7 2.7-17.3 19.7-28.1 36.1-22.9 72.6 23.4 135.7 58.4 189.3 104.9 13.2 11.5 13 32.4-0.4 43.6-54.9 46-117.8 81-188.6 104.9-16.4 5.6-33.7-5.3-36.4-22.8-2.7-17.6-4.7-35.2-6.1-52.7H423.5c-198.4 0-359.9-164.5-359.9-366.6 0-202.2 161.4-366.6 359.9-366.6h191.7c155.7 0 293.1 101.5 342 252.6 8.6 26.8-5.8 55.7-32.1 64.5z"  horiz-adv-x="1024" />

    
    <glyph glyph-name="diantai" unicode="&#58974;" d="M925.156124 161.05244400000004a483.555556 483.555556 0 1 1-833.024 11.377778 32.256 32.256 0 0 1 55.978667 32.085334 419.100444 419.100444 0 1 0 722.033778-9.841778 32.256 32.256 0 0 1 55.011555-33.564445z m-165.262222 114.744889a290.133333 290.133333 0 1 1-499.825778 6.826667 32.256 32.256 0 0 1 55.978667 32.085333 225.678222 225.678222 0 1 0 388.835556-5.290666 32.256 32.256 0 1 1 55.011555-33.564445z m-155.591111 96.881778l-9.955555-338.090667a32.426667 32.426667 0 0 0-0.910223-6.599111c0.568889-4.437333 0.853333-8.931556 0.853334-13.482666 0-72.248889-70.257778-127.260444-153.6-127.260445-83.285333 0-153.486222 55.011556-153.486223 127.260445s70.200889 127.203556 153.543112 127.203555c33.962667 0 65.763556-9.102222 91.534222-24.860444L540.473458 395.719111a32.256 32.256 0 0 0 17.408 27.704889 32.085333 32.085333 0 0 0 12.743111 6.257778c3.413333 0.853333 28.444444 9.272889 39.025778 12.231111 13.539556 3.697778 27.932444 6.769778 44.487111 9.216a32.256 32.256 0 1 0 9.386666-63.772445c-13.880889-2.048-25.713778-4.551111-36.750222-7.623111-4.209778-1.137778-13.596444-4.209778-22.471111-7.054222z"  horiz-adv-x="1024" />

    
    <glyph glyph-name="wangyiyunyinlezizhi-copy" unicode="&#58881;" d="M832.73386667 462.256c-56.89386667 56.89386667-131.0688 90.20906667-210.6848 95.09546666-5.18826667 14.3744-9.8528 29.9968-13.81866667 47.408-5.7664 25.33973333-10.03733333 54.48746667-12.24746667 89.13493334-0.53973333 8.45333333-0.95466667 17.23733333-1.24053333 26.37226666-0.2752 8.85973333-0.4288 18.05546667-0.44906667 27.6-0.03306667 0.0032-0.06293333 0.0064-0.096 0.01386667 0.02453333 0.24106667 0.06506667 0.48 0.0928 0.7232 6.29226667 55.136 53.97866667 97.88373333 111.1328 96.24853333 40.27413333-1.15093333 75.41973333-24.58346667 93.18826667-58.46506666l53.72266667 10.3232c-21.1424 52.64426667-69.30453333 91.65226667-127.33973334 99.6128-93.27146667 12.7936-174.1472-54.57173333-183.51253333-142.96106667-0.07786667-0.7392-0.12693333-2.6432-0.15573333-3.3856l-0.00106667-7.12106667c0.0192-6.29653333 0.17066667-16.09813333 0.57493333-27.38133333 0.1952-5.49653333 0.44693333-10.912 0.7392-16.26773333 2.96-54.19626667 10.8544-101.2448 23.90933334-142.77333334 0.032-0.096 0.0608-0.1888 0.09173333-0.28586666-29.62026667-3.12746667-58.368-10.22933333-85.6256-21.0272l-0.0192-0.00213334-0.03626667-0.01813333c-40.91946667-16.2176-78.47466667-40.78186667-110.53546666-72.84373333l10.17386666 9.10293333c-43.39413333-42.3456-70.38506667-101.4272-70.38506666-166.704 0-31.7472 6.38933333-62.02453333 17.93813333-89.63306667 27.54666667-65.85386667 84.48533333-116.45866667 154.3296-135.33973333 18.36906667-5.73333333 37.89333333-8.82346667 58.12693333-8.82346667 10.784 0 21.36426667 0.8928 31.67786667 2.58026667 92.7712 15.184 163.79306667 95.8944 163.79306667 192.89386667 0 22.15786667-3.71306667 43.4656-10.5376 63.33653333-14.01813333 58.02133333-36.58026667 97.55306667-58.58346667 136.06506667-6.7072 11.744-13.34826667 23.37386667-19.73226667 35.45706666 10.87786667-1.83253333 21.54026667-4.30826667 31.94773334-7.38666666 113.36106667-33.54026667 196.31786667-138.60906667 196.31786666-262.70293334 0-63.87413333-21.9808-122.70933333-58.77013333-169.34613333-26.11626667-29.22026667-56.63893333-54.41386667-90.5184-74.53973333-57.12426667-33.9296-123.7664-53.45066667-194.88853333-53.45066667-29.22986667 0-57.70026667 3.30666667-85.07093334 9.54026667-170.27733333 38.78933333-297.7408 191.41866667-297.7408 373.26933333 0 189.43786667 138.32533333 347.15093333 319.2704 377.5072l-6.9824 52.6176c-89.40053333-14.46506667-171.82613333-56.34026667-237.19573333-121.53066667-81.632-81.40693333-127.81546667-192.27733333-128.08106667-307.56373333-0.26986667-117.1616 45.37706667-227.3312 128.43093334-309.9744 82.7008-82.2912 195.40266667-128.05546667 312.06293333-126.82986667 77.7824 0.816 152.3136 21.9008 217.5648 60.72533334 28.80746667 15.16586667 55.48266667 34.74453333 79.1584 58.42026666 8.56853333 8.56853333 16.5824 17.5424 24.06293333 26.85226667 46.44053333 57.7888 71.6832 129.09973333 71.6832 204.30186667 0 33.34293333-4.97173333 65.91573333-14.5408 96.89066666-15.49013333 50.14613333-43.04106667 96.096-81.20746666 134.2624ZM396.01706667 485.15626666c0.8224 0.6752 1.6608 1.33226667 2.49386666 1.9968-0.89066667-0.70613333-1.776-1.41973333-2.65706666-2.13973333l0.16106666 0.14293333ZM674.5888 314.8256c3.54773333-15.07946667 6.43306667-31.5584 8.48426667-49.88266667-0.6688-69.67146667-51.59146667-127.53813333-118.18666667-139.01973333-7.1008-0.8544-14.3232-1.30666667-21.648-1.30666667-15.76426667 0-31.05706667 2.04373333-45.6384 5.86666667-77.24266667 20.256-134.39573333 90.66026667-134.39573333 174.16746666 0 23.88373333 4.68586667 46.69013333 13.16906666 67.56373334 10.76906667 26.4992 27.66506667 49.8784 48.9312 68.3552 3.74826667 3.16053333 7.57546667 6.22613333 11.4912 9.18293333 42.1248 31.82613333 93.69386667 51.7792 149.69173334 54.8352 4.71253333-10.31893333 9.5968-20.0576 14.56426666-29.424 5.2928-9.97973333 10.6784-19.54133333 16.0384-28.95253333 1.2896-2.26346667 2.57706667-4.51733333 3.86133334-6.76586667 21.13493333-36.99093333 41.3568-72.42346667 53.63733333-124.6208Z"  horiz-adv-x="1024" />

    
    <glyph glyph-name="zhutu" unicode="&#58921;" d="M-15.62548147 477.20675555h155.34459258V-159.70607408h-155.34459258zM372.736 927.70607408h155.3445926v-1087.41214816h-155.3445926zM1149.45896297 477.20675555h155.34459259V-159.70607408h-155.34459259zM761.09748148 220.88817777999998h155.3445926V-159.70607408h-155.3445926z"  horiz-adv-x="1280" />

    
    <glyph glyph-name="danquxunhuan" unicode="&#58901;" d="M832.44475556 330.44963264v-66.30472183c0-81.59897805-66.30472183-132.58704186-149.5938778-132.58704186h-341.69171333c-81.59897805 0-149.59387779 49.3009758-149.59387779 132.58704186v132.58704186c0 81.59897805 66.30472183 132.58704186 149.59387779 132.58704185h368.88596535l-88.39522362-88.39522362 32.30495453-32.30495452 146.19652748 146.19652747-146.19652748 146.19652748-32.30495453-32.30495453 91.7902565-91.7902565h-397.78584481c-93.49588394 0-169.99111176-76.49909019-169.99111174-169.99111174v-152.99740792c0-93.49588394 76.49909019-169.99111176 169.99111174-169.99111176h390.98959924c93.49588394 0 169.99111176 76.49909019 169.99111175 169.99111176v76.49909019h-44.19490814zM540.04861069 223.35276031h-44.19490815v164.89663124c-15.30275345-15.30275345-34.00362968-25.49943923-56.0964489-32.30495452v39.10197258c11.90154075 3.39735031 23.80539894 10.19127847 37.39866257 20.4026413 13.60330582 10.19127847 22.0997715 22.0997715 27.19965936 35.69612502h35.69612502v-227.7993679z"  horiz-adv-x="1024" />

    
    <glyph glyph-name="forward2-copy" unicode="&#59333;" d="M783.032 708.833c-3.092 1.72-6.492 2.56-9.912 2.56-3.789 0-7.557-1.044-10.875-3.133l-460.165-288.707v276.214c0 11.325-9.175 20.48-20.48 20.48s-20.48-9.155-20.48-20.48v-614.399c0-11.305 9.175-20.48 20.48-20.48s20.48 9.175 20.48 20.48v276.214l460.165-288.686c6.328-3.973 14.296-4.198 20.787-0.573 6.513 3.604 10.568 10.465 10.568 17.92v604.672c0 7.476-4.055 14.336-10.568 17.92zM752.64 123.29l-422.871 265.298 422.871 265.318v-530.616z"  horiz-adv-x="1024" />

    
    <glyph glyph-name="xiazai" unicode="&#58951;" d="M809.98941799 443.5978836H690.79365079V801.18518519H333.20634921v-357.58730159H214.01058201l297.98941799-297.98941799 297.98941799 297.98941799z m-417.18518518-59.5978836V741.58730159h238.39153438v-357.58730159h34.89185186L512 229.91238095000006 357.91238095 384H392.80423281zM859.50984127 205.20634920999998H809.98941799v-119.1957672c0-32.83301587-26.76486773-59.5978836-59.5978836-59.5978836H273.60846561c-32.83301587 0-59.5978836 26.76486773-59.5978836 59.5978836V205.20634920999998h-59.5978836v-119.1957672c0-65.55767195 53.63809524-119.19576719 119.1957672-119.1957672h476.78306878c65.55767195 0 119.19576719 53.63809524 119.1957672 119.1957672V195.12888888999998c0 5.52634921-4.55111111 10.07746032-10.07746032 10.07746032z"  horiz-adv-x="1024" />

    
    <glyph glyph-name="zhuanfa" unicode="&#58929;" d="M183.40977778 245.83111110000004c12.17422222 57.68533333 31.28888889 109.22666667 57.45777777 154.73777778s54.38577778 81.35111111 84.76444445 107.52c30.37866667 26.16888889 64.62577778 48.35555555 102.96888889 66.56s72.24888889 30.94755555 101.83111111 38.11555556 60.30222222 12.17422222 92.16 14.7911111 53.02044445 3.75466667 63.60177778 3.41333334 19.22844445-0.56888889 24.91733333-0.56888889v199.11111111l287.97155556-248.03555556c13.65333333-12.85688889 21.04888889-23.09688889 22.18666666-30.72s-4.43733333-17.408-16.61155555-29.58222222l-296.96-223.00444444v190.00888889c-30.72 8.30577778-62.69155555 12.51555555-94.89066667 12.51555555s-61.78133333-3.41333333-88.74666666-10.24c-26.96533333-6.82666667-54.04444445-16.72533333-81.35111112-29.58222222s-51.54133333-26.39644445-72.81777778-40.39111111c-21.27644445-13.99466667-42.32533333-29.80977778-63.14666666-47.21777778-20.82133333-17.408-38.11555555-32.768-51.76888889-46.08s-26.51022222-27.07911111-38.68444445-41.52888889-20.13866667-23.89333333-23.89333333-28.44444444-6.71288889-8.30577778-8.98844444-11.37777778zM744.10666667 119.53777777000005v106.95111111l75.09333333 75.09333333v-212.76444444c0-32.65422222-11.49155555-60.75733333-34.58844445-83.968S733.75288889-30.08000001000005 701.09866667-30.08000001000005h-580.26666667c-32.65422222 0-60.64355555 11.83288889-83.74044445 35.04355555S2.27555555 56.16355553999995 2.27555555 88.81777777000002v433.49333333c0 32.65422222 11.71911111 60.18844445 34.816 83.39911111s51.08622222 34.47466667 83.74044445 34.47466667h221.86666667c-38.68444445-19.34222222-72.47644445-44.37333333-101.26222222-73.95555556h-127.43111112c-10.58133333 0-19.68355555-3.29955555-26.85155555-10.58133333-7.168-7.168-10.92266667-15.81511111-10.92266667-26.51022222v-447.14666667c0-9.89866667 3.75466667-18.65955555 10.92266667-25.94133333 7.168-7.168 16.27022222-11.15022222 26.85155555-11.15022223h593.92c9.89866667 0 18.31822222 3.86844445 25.48622222 11.15022223s10.69511111 16.04266667 10.69511112 25.94133333v37.54666667z"  horiz-adv-x="1024" />

    
    <glyph glyph-name="gengduo" unicode="&#59484;" d="M117.84494004 271.38426857a112.61573143 112.61573143 0 1 0-0.05630787 225.17515499A112.61573143 112.61573143 0 0 0 117.84494004 271.38426857z m394.15505996 0a112.61573143 112.61573143 0 1 0-0.05630786 225.17515499A112.61573143 112.61573143 0 0 0 512 271.38426857z m394.15505996 0a112.61573143 112.61573143 0 1 0-0.05630785 225.17515499A112.61573143 112.61573143 0 0 0 906.15505996 271.38426857z"  horiz-adv-x="1024" />

    
    <glyph glyph-name="bofang1" unicode="&#58917;" d="M512 892.55520762C235.22796914 892.55520762 8.77812571 666.10536419 8.77812571 389.33333333s226.44984343-503.22187429 503.22187429-503.22187429 503.22187429 226.44984343 503.22187429 503.22187429S788.77203086 892.55520762 512 892.55520762z m0-964.50859207C258.29230537-71.95338445000004 50.71328222 135.62563869999997 50.71328222 389.33333333S258.29230537 850.62005111 512 850.62005111s461.28671778-207.57902314 461.28671778-461.28671778-207.57902314-461.28671778-461.28671778-461.28671778zM669.25683572 458.52634105l-167.74062509 111.12816423c-56.61246086 37.74164057-104.8378908 12.58054685-104.83788983-56.61246086v-251.61093714c0-69.19300772 46.12867148-94.35410143 104.83788983-56.61246086l167.74062509 111.12816325c56.61246086 41.93515652 56.61246086 104.8378908 0 142.57953138z"  horiz-adv-x="1024" />

    
    <glyph glyph-name="xunhuan" unicode="&#58883;" d="M809.8165625 554.49656251c-45.541875 45.541875-106.09218751 70.6228125-170.49656251 70.6228125L386.27093749 625.11937501l0 48.40499999c0 15.459375-10.62562499 21.245625-23.61187499 12.85874999L246.1625 611.1440625c-12.98625001-8.38593748-12.8596875-21.91031249 0.28218751-30.0515625l115.93312499-71.82187501c13.141875-8.14125001 23.893125-2.154375 23.89312499 13.30500001l0 48.1678125 253.04812502 0c102.97125001 0 186.7434375-83.773125 186.74343749-186.7434375 0-17.0259375-2.285625-33.886875-6.793125-50.11312499-4.0190625-14.4675 4.4503125-29.45343749 18.91781251-33.47249999 2.4346875-0.676875 4.88343749-0.99937501 7.2928125-0.99937501 11.9071875 0 22.8365625 7.884375 26.17968749 19.91718749 5.82468749 20.96531249 8.77781249 42.72281249 8.7778125 64.6678125C880.4384375 448.4053125 855.35750001 508.95562499 809.8165625 554.49656251zM764.9253125 186.90750000000003l-115.933125 71.82187501c-13.141875 8.14125001-23.893125 2.154375-23.893125-13.30500001l0-48.1678125L351.869375 197.25656249999997c-102.9703125 0-186.7434375 83.7721875-186.7434375 186.7434375 0 36.08249999 10.30125001 71.08875001 29.7890625 101.233125 8.1525 12.60937501 4.5384375 29.4403125-8.07 37.591875-12.61031249 8.1534375-29.4403125 4.5384375-37.59281249-8.0709375C124.06437499 475.794375 110.7509375 430.580625 110.7509375 384c0-64.404375 25.0809375-124.9546875 70.621875-170.49656251 45.541875-45.5409375 106.09218751-70.621875 170.4965625-70.621875l273.22875 0 0-48.40499999c0-15.459375 10.62562499-21.245625 23.61187499-12.85875001l116.4975 75.23812501C778.1928125 165.24187499000004 778.06718751 178.76624999 764.9253125 186.90750000000003z"  horiz-adv-x="1024" />

    
    <glyph glyph-name="shouji" unicode="&#58987;" d="M867.907833 95.25025000000005v-178.515627a44.512063 44.512063 0 0 0-44.512063-44.512063h-623.168876a44.512063 44.512063 0 0 0-44.512063 44.512063v934.753314a44.512063 44.512063 0 0 0 44.512063 44.512063h623.168876a44.512063 44.512063 0 0 0 44.512063-44.512063V139.07237599999996H868.130393v-43.822126h-0.22256z m-44.512063 711.725625a44.512063 44.512063 0 0 1-44.512063 44.512062h-534.144751a44.512063 44.512063 0 0 1-44.512062-44.512062V139.07237599999996h623.168876V806.975875z m0-711.725625h-623.168876v-134.003564a44.512063 44.512063 0 0 1 44.512062-44.512063h534.144751a44.512063 44.512063 0 0 1 44.512063 44.512063v134.003564zM512.033892-38.975874999999974a44.512063 44.512063 0 1 0 44.512063 44.512063 44.512063 44.512063 0 0 0-44.512063-44.512063z"  horiz-adv-x="1024" />

    
    <glyph glyph-name="dianzan" unicode="&#59271;" d="M1044.395912 383.865816l-121.838735-425.42174a114.861186 114.861186 0 0 0-109.970939-85.072421H113.996447A114.115722 114.115722 0 0 0 0-12.572261V383.597449c0 64.676509 53.255991 121.421275 113.996447 121.421275h111.461868c139.01424 0 243.826563 106.720713 243.826563 248.239713v29.222213C469.284878 842.952739 524.091436 896 586.56137 896h2.981858a114.205177 114.205177 0 0 0 107.108355-77.200314l7.395009-20.515186a365.814391 365.814391 0 0 0 8.438659-205.241315l-3.727323-15.684576a172.560147 172.560147 0 0 0-14.283102-46.248624h240.93416a111.819691 111.819691 0 0 0 89.783757-45.383885 116.68012 116.68012 0 0 0 19.203169-101.860284z m-930.339827 63.006669c-28.685478 0-55.82039-30.74296-55.82039-63.275036V-12.572261a55.880027 55.880027 0 0 1 55.82039-55.850208h94.524911V446.872485H113.996447z m864.738941 3.876416a54.090912 54.090912 0 0 1-43.296584 22.185026H607.225649c-0.357823 0-11.718704 6.11281-11.718704 29.818585a36.766314 36.766314 0 0 0 11.718704 28.238199h19.173349c8.945575 6.917912 23.854867 40.463819 24.481058 50.989779v1.25238l0.477097 4.025509 4.651699 19.650447a307.578696 307.578696 0 0 1-6.888093 172.381235l-7.424827 20.515186a55.671297 55.671297 0 0 1-52.152704 38.108151h-2.981858c-30.385137 0-59.100434-26.836726-59.100434-55.373111v-29.222212c0-160.394164-109.493841-284.558749-260.703882-303.761918v-517.978626h545.829184a56.65531 56.65531 0 0 1 53.941819 42.521301l121.958009 425.809383a58.265514 58.265514 0 0 1-9.750677 50.691593z m0 0"  horiz-adv-x="1051" />

    
    <glyph glyph-name="pengyou" unicode="&#58892;" d="M38.96168095-62.42206580000004a35.13457851 35.13457851 0 0 0-35.08090149 35.09879385c0 89.13006196 28.1661111 173.75125592 81.46021508 244.72059958a413.08387755 413.08387755 0 0 0 91.3761462 88.80680715 403.79656374 403.79656374 0 0 0 93.44092147 49.43293846 262.34216226 262.34216226 0 0 0-77.02410926 78.98153051 257.18678461 257.18678461 0 0 0-39.391761 137.21511133c0 142.9096446 116.25364644 259.1453987 259.16329103 259.14539868 142.89175226 0 259.1453987-116.25245361 259.14539871-259.14539868 0-87.47681036-42.9666492-167.23128967-115.46280531-215.47856287a410.22706833 410.22706833 0 0 0 91.89502387-48.82221348 407.92849991 407.92849991 0 0 0 91.35825387-88.96783813 404.1746884 404.1746884 0 0 0 81.62124609-244.72059959c0-19.3463836-15.73571073-35.09879383-35.08090151-35.09879384s-35.09879383 15.75241024-35.09879384 35.09879384c0 90.29664209-35.13457851 175.24228371-98.91955392 239.15250546-61.95280049 62.25816298-143.9509784 97.5012883-230.85404128 99.2249164l-0.95187213-0.4306088c-2.76615474-0.55704797-5.38917079-0.88030279-7.92033954-0.88030281-1.00674196 0-1.97650642 0.053677-2.94627089 0.14313867-88.62669099-0.01789234-172.87214596-35.25982484-236.71079837-99.22491643-63.78497542-64.23347657-98.91955392-149.17792536-98.91955393-239.15250545a35.15247084 35.15247084 0 0 0-35.09879385-35.09879385z m374.06904838 823.23937656c-104.20017789 0-188.96451053-84.76552546-188.96451053-188.96570336s84.76433264-188.96570335 188.96451053-188.96570336S602.01551783 467.65262232 602.01551783 571.8528002099999s-84.78222497 188.96451053-188.98359568 188.96451055z m572.41152718-746.95243143a35.13457851 35.13457851 0 0 0-35.09879385 35.08090151c0 155.2136058-118.24685237 281.49053737-263.59939686 281.49053734a35.15247084 35.15247084 0 1 0 0 70.32283401c79.50160101 0 144.18477157 69.46042355 144.18477155 154.81878166 0 85.37505763-64.70106289 154.83667398-144.18477155 154.83667398-19.3463836 0-35.08090151 15.73451791-35.08090152 35.09879383s15.73451791 35.09879383 35.08090152 35.09879384c118.21106769 0 214.38235923-100.94854452 214.38235923-225.01636932 0-39.85934732-10.05906979-78.94574586-29.06311341-113.0199054a222.44703026 222.44703026 0 0 0-58.43278212-68.32962808c56.95964669-24.64370707 106.24825365-65.41914187 142.98240675-118.40907618 41.97779958-60.62280372 64.07125275-132.14919535 63.94600643-206.90932802a35.15247084 35.15247084 0 0 0-35.11668617-35.06300917z"  horiz-adv-x="1024" />

    
    <glyph glyph-name="zhanghao" unicode="&#58890;" d="M950.34357049 141.82845214999998c-23.97855764 56.80617243-58.25407983 107.90947397-101.87409836 151.89246292-43.67963073 44.04260114-94.46235153 78.6545997-150.9373474 102.87425474a470.65057505 470.65057505 0 0 1-51.35632035 18.59229069c74.85665873 45.27325654 125.00219355 127.45952882 125.00219355 221.14162848 0 142.39827264-115.84977949 258.24805212-258.24805213 258.24805212s-258.24805212-115.84977949-258.24805341-258.24805212c0-93.52313294 49.9733237-175.59283205 124.61802896-220.91377808a473.13572865 473.13572865 0 0 1-53.21488635-19.11025229c-56.20078031-24.07791087-106.64437609-58.36668005-149.93056945-101.91251638-89.03501924-89.57020208-138.06912434-208.453565-138.06912305-334.752649v-5.86713612c0-44.30224409 36.04135913-80.34625312 80.34227759-80.34890176l789.29476264 2.93290591c44.13930574 0.16426396 80.05084208 36.2082717 80.05084208 80.34890175 0.00132432 63.99801862-12.59268448 126.28186275-37.42965432 185.12278914z m-642.67331653 494.50196114c0 113.18049076 92.07920107 205.25969184 205.25969184 205.25969055s205.25969184-92.07920107 205.25969054-205.25969055c0-102.54970106-75.59319664-187.77485661-173.9833106-202.88051431a476.26204246 476.26204246 0 0 1-34.36030279 1.0266504c-9.43722672-0.05961219-18.82676524-0.42655683-28.17391152-1.03062463-98.39806244 15.09903355-174.00185617 100.32816334-174.00185747 202.88448854z m599.85607096-706.98264183l-788.99007883-2.9329059h-0.10465176c-15.08446223 0.00132432-27.35789155 12.27607924-27.35789156 27.36054146v5.86713613c0 220.93762218 171.79224245 403.57658203 388.79150509 420.5487542a259.67211541 259.67211541 0 0 1 33.06473794-2.10893748c11.20306496 0 22.24186465 0.71931666 33.07268641 2.1102618 217.21784026-17.06887547 388.78355662-200.48014132 388.78355534-423.48563434 0-15.03014858-12.22838975-27.3035779-27.25986263-27.35921587z"  horiz-adv-x="1024" />

    
    <glyph glyph-name="pifu" unicode="&#58984;" d="M721.205359-83.911111l-32.193939 0.258586-358.917172-0.129293c-19.264646 0-41.244444 0.905051-58.181818 11.894949-10.472727 6.593939-24.436364 19.911111-30.771717 36.719192-5.171717 13.834343-5.042424 28.832323-4.783839 43.442424V372.492929c-4.008081-2.327273-8.145455-4.39596-12.412121-6.20606-21.074747-8.791919-49.907071-4.266667-70.723232 10.214141-7.369697 5.171717-12.8 10.860606-17.713132 15.90303l-11.119191 10.860606-38.529293 36.977778c-7.111111 7.111111-14.092929 14.222222-21.074748 21.333334-6.593939 5.559596-12.541414 11.765657-18.488889 17.842424l-6.464646 6.464646c-1.810101 1.810101-3.878788 3.620202-5.818182 5.430303-8.533333 7.757576-19.135354 17.454545-25.858586 32.840404-3.620202 8.145455-10.472727 23.531313-7.369697 40.339394 5.688889 30.513131 24.436364 47.062626 39.434344 60.509091 5.171717 4.654545 8.921212 8.40404 12.541414 12.153536 4.266667 4.266667 8.533333 8.662626 12.929293 12.670707L236.098288 816.09697c8.016162 8.145455 18.747475 19.135354 35.038384 25.470707l25.212122 6.20606s69.688889 4.654545 92.315151 0c8.145455-1.680808 23.40202-9.955556 29.737374-14.997979 9.567677-7.369697 16.290909-16.032323 22.238384-23.789899l1.551515-2.068687c4.783838-6.206061 16.290909-14.092929 26.763636-18.488889 12.412121-5.171717 26.505051-8.40404 43.571717-11.636364l20.428283-1.292929c3.620202 0 8.921212 0.646465 14.99798 1.939394 33.09899 6.723232 46.545455 11.248485 65.680808 26.50505 1.680808 1.422222 4.137374 4.654545 6.593939 7.886869 4.266667 5.818182 9.567677 13.058586 17.583839 18.876768l19.264646 12.412121c4.137374 1.551515 12.541414 4.137374 16.161616 4.783838 7.111111 1.292929 61.672727 0 68.39596 0 24.824242 0 40.339394-2.19798 51.846465-8.274747 12.929293-6.981818 22.367677-16.420202 30.642424-24.69495l159.547475-156.056565c6.464646-6.981818 12.670707-12.670707 18.876767-18.359596 7.369697-6.852525 14.610101-13.575758 21.333334-20.945455 1.680808-1.810101 3.620202-3.749495 5.559596-5.688889 8.791919-8.791919 19.911111-19.652525 26.246464-37.494949l1.422222-6.723233c0.129293-2.327273 0.258586-4.783838 0.258586-7.111111 4.008081-29.220202-12.024242-49.519192-18.10101-57.147474l-2.19798-2.456566-101.365656-98.909091c-13.317172-15.127273-31.676768-35.814141-59.862626-40.985859-22.49697-4.137374-39.951515 1.292929-53.527273 9.438384v-292.460606c0-32.581818-0.258586-65.163636-0.387879-97.745454l-0.517172-5.042425c-3.490909-16.937374-13.834343-33.874747-27.022222-43.959596-20.557576-15.90303-48.484848-17.19596-73.179798-17.195959z m-370.294949 50.682828l370.294949-0.387879c10.084848 0 33.874747 0 43.054546 6.981819 2.585859 2.068687 6.076768 7.240404 7.757575 12.153535l0.387879 94.513131V434.036364l32.581818 22.238383 27.410101-26.50505c13.058586-12.8 21.074747-19.652525 34.909091-17.066667 11.119192 2.068687 21.850505 14.222222 31.288889 24.824243l3.10303 3.490909 99.555556 96.969697c5.947475 7.757576 7.628283 12.541414 6.723232 18.359596l-0.387878 3.620202V562.424242c-2.585859 5.171717-6.464646 9.309091-13.058586 15.773738-2.327273 2.327273-4.654545 4.654545-6.981818 7.111111-6.076768 6.593939-12.412121 12.541414-18.876768 18.359596-6.981818 6.593939-14.092929 13.187879-20.557576 20.169697L788.825561 779.377778c-6.464646 6.335354-12.412121 12.412121-18.747475 15.90303-0.646465 0.387879-6.335354 2.715152-28.185858 2.715152-6.335354 0-12.670707-0.129293-18.876768-0.387879-6.076768-0.129293-12.024242-0.258586-17.325252-0.258586H685.520511c-2.973737-0.905051-5.430303-1.292929-7.240404-1.551515l-11.119192-6.206061c-1.680808-1.680808-3.878788-4.654545-6.076768-7.628283-3.878788-5.30101-8.662626-11.894949-15.644444-17.454545-27.280808-21.721212-49.00202-28.832323-87.143435-36.460606-13.834343-2.844444-25.341414-3.749495-34.650505-2.327273l-18.488889 1.163636c-20.945455 3.878788-38.4 7.886869-55.337373 14.99798-14.868687 6.206061-34.909091 18.359596-47.062627 34.004041l-1.680808 2.197979c-4.783838 6.076768-8.791919 11.377778-13.317171 14.868687-1.163636 0.646465-3.10303 1.163636-4.913132 1.810101-2.19798 0.775758-4.39596 1.680808-6.593939 2.585859h-63.870707l-14.99798-1.292929c-10.084848-0.387879-14.99798-4.913131-25.082828-15.256566l-30.90101-30.254545-140.929293-137.567677c-4.525253-4.008081-8.016162-7.628283-11.507071-11.248485-4.525253-4.654545-9.050505-9.179798-13.963636-13.446465-14.868687-13.187879-22.109091-20.169697-24.565657-33.228283 0-1.810101 2.456566-7.240404 3.490909-9.567676 2.844444-6.593939 6.981818-10.60202 14.222222-17.066667 2.456566-2.19798 4.783838-4.39596 7.240404-6.723232l7.111111-7.111111c5.171717-5.30101 10.214141-10.60202 15.903031-15.385859l1.810101-1.680808c6.981818-7.111111 13.963636-14.222222 21.074747-21.333333l50.553536-48.872728c3.749495-3.878788 6.981818-7.240404 10.343434-9.567676 5.042424-3.490909 16.549495-7.369697 22.626263-4.783839 9.438384 3.878788 16.808081 11.377778 25.470707 20.040404 4.266667 4.266667 20.29899 22.109091 20.29899 22.109091l36.20202-20.945454v-426.278788c-0.129293-9.438384-0.258586-20.169697 1.551515-25.082829 1.422222-3.620202 6.464646-9.309091 10.731313-12.024242 6.206061-4.008081 24.953535-4.008081 31.030303-4.008081h20.816162z m0 0"  horiz-adv-x="1059" />

    
    <glyph glyph-name="huatong" unicode="&#58924;" d="M797.0248696 385.03917334v107.35399984c0 1.61030999 0 2.68385-0.53677 4.29416001v33.81650995c0 41.86805994-34.35327995 76.2213399-76.2213399 76.22133988s-76.2213399-34.35327995-76.22133989-76.22133988v-134.72926982c0-73.0007199-59.04469992-132.04541981-132.04541981-132.04541982s-132.04541981 59.04469992-132.04541981 132.04541982V725.8881228600001c0 73.0007199 59.04469992 132.04541981 132.04541981 132.0454198s132.04541981-59.04469992 132.04541981-132.0454198v-50.99314993c0-10.19862998 8.58831999-18.78694997 18.78694998-18.78694997s18.78694997 8.58831999 18.78694996 18.78694997v50.99314993c0 93.39797987-76.2213399 169.61931975-169.61931975 169.61931975-93.39797987 0-169.61931975-76.2213399-169.61931975-169.61931975v-330.11354954c0-93.39797987 76.2213399-169.61931975 169.61931975-169.61931976 93.39797987 0 169.61931975 76.2213399 169.61931975 169.61931976V530.5038431400001c0 21.47079998 17.17663997 38.64743995 38.64743995 38.64743993s38.64743995-17.17663997 38.64743995-38.64743993v-101.98629987h0.53677v-43.47836993c0-136.3395798-111.11138984-247.45096965-247.45096965-247.45096966-136.3395798 0-247.45096965 111.11138984-247.45096965 247.45096966V581.49699306c0 10.19862998-8.58831999 18.78694997-18.78694997 18.78694997s-18.78694997-8.58831999-18.78694998-18.78694997v-196.45781972c0-150.83236979 117.55262983-274.8262396 266.23791963-284.4880996v-141.7072798H339.16006024c-10.19862998 0-18.78694997-8.58831999-18.78694996-18.78694997s8.58831999-18.78694997 18.78694996-18.78694998h303.27504957c39.18420994 0 69.2433299-31.66942995 69.24332991-32.20619995 3.75739-4.29415999 8.58831999-5.90446999 13.95601997-5.90446999 4.29415999 0 9.12508999 1.61030999 12.88247999 4.83092999 7.51477999 6.97800999 8.05154999 18.78694997 1.07353999 26.30172996-1.61030999 1.61030999-41.33128995 44.01513994-97.15536986 44.01513995h-111.64815984v141.70727979c148.68528978 10.19862998 266.23791962 134.19249981 266.23791963 285.0248696z"  horiz-adv-x="1024" />

    
    <glyph glyph-name="you-copy" unicode="&#59334;" d="M309.68458181 377.82328786000005C297.26632103 389.0773382 297.4117201 405.14604745 310.20393431 416.33923265L790.79268282 836.85438924C804.57354632 848.91264698 805.96999466 869.85939043 793.91174158 883.64025242 781.85348389 897.42111441 760.9067404 898.81756431 747.1258784 886.75931122L266.53712686 466.24415455C223.90793645 428.94361377 223.34362124 366.57823325000004 265.15473923 328.68690778999996L746.69435931-107.70837441000003C760.26299679-120.00495147000004 781.23089433-118.97374233999994 793.52747301-105.40510644999995 805.82404854-91.83646899999997 804.79283932-70.86857140999996 791.22420344-58.57199122999998L309.68458181 377.82328786000005Z"  horiz-adv-x="1024" />

    


  </font>
</defs>
</svg>
